STARTFONT 2.1
COMMENT
COMMENT Converted from OpenType font "alias.ttf" by "otf2bdf 3.0".
COMMENT
FONT -FreeType-Alias UnionBold Italic-Medium-I-Normal--40-400-72-72-P-218-ISO10646-1
SIZE 40 72 72
FONTBOUNDINGBOX 52 50 -7 -11
STARTPROPERTIES 19
FOUNDRY "FreeType"
FAMILY_NAME "Alias UnionBold Italic"
WEIGHT_NAME "Medium"
SLANT "I"
SETWIDTH_NAME "Normal"
ADD_STYLE_NAME ""
PIXEL_SIZE 40
POINT_SIZE 400
RESOLUTION_X 72
RESOLUTION_Y 72
SPACING "P"
AVERAGE_WIDTH 218
CHARSET_REGISTRY "ISO10646"
CHARSET_ENCODING "1"
FONT_ASCENT 38
FONT_DESCENT 10
COPYRIGHT "(r) (c) 2001 [T26] Chicago www.t26.com 773.862.1201 XT0733 ID#5116981 designer: Gareth Hague / Alias"
_OTF_FONTFILE "alias.ttf"
_OTF_PSNAME "AliasUnionBoldItalic"
ENDPROPERTIES
CHARS 225
STARTCHAR 0020
ENCODING 32
SWIDTH 250 0
DWIDTH 10 0
BBX 0 0 0 0
BITMAP
ENDCHAR
STARTCHAR 0021
ENCODING 33
SWIDTH 350 0
DWIDTH 14 0
BBX 13 30 1 -1
BITMAP
01F0
03F0
07F8
07F8
07F0
07F0
07E0
07E0
07E0
07C0
07C0
0780
0780
0700
0700
0700
0600
0600
0400
0400
0000
0000
1E00
7F00
7F00
FF00
FF00
FE00
7C00
3000
ENDCHAR
STARTCHAR 0022
ENCODING 34
SWIDTH 425 0
DWIDTH 17 0
BBX 13 11 4 18
BITMAP
7878
F8F8
F8F8
F8F8
F0F0
F0F0
E0E0
E0E0
C0C0
C0C0
8080
ENDCHAR
STARTCHAR 0023
ENCODING 35
SWIDTH 600 0
DWIDTH 24 0
BBX 24 29 0 0
BITMAP
000183
000306
000206
00060C
00040C
000C18
000818
001830
001020
003060
0FFFFF
0060C0
00C080
00C180
018100
018300
030200
030600
FFFFF0
FFFFF0
0C0800
0C1800
181000
183000
302000
306000
60C000
60C000
C18000
ENDCHAR
STARTCHAR 0024
ENCODING 36
SWIDTH 575 0
DWIDTH 23 0
BBX 22 37 0 -4
BITMAP
000060
000040
0000C0
000080
003FF0
00FDFC
01F138
03E338
07C238
07C218
0FC618
0FC418
0FCC00
0FE800
0FF800
07FC00
03FE00
03FF80
00FFC0
007FC0
007FE0
004FE0
00CFE0
0087F0
0087E0
4187E0
4107E0
E307E0
E207C0
E20F80
E61F00
FCFE00
7FF800
080000
080000
180000
100000
ENDCHAR
STARTCHAR 0025
ENCODING 37
SWIDTH 725 0
DWIDTH 29 0
BBX 24 30 3 -1
BITMAP
03C01C
0FF838
1E3FF0
3C37F0
783060
7830C0
F830C0
F03180
F06380
F06300
F0C600
F18600
FF0C00
7E1800
001800
00307C
0031FE
0063C6
00C783
00C783
018F02
018F06
031F06
061E0E
061E0C
0C1E18
1C1F38
181FE0
300FC0
100000
ENDCHAR
STARTCHAR 0026
ENCODING 38
SWIDTH 750 0
DWIDTH 30 0
BBX 28 30 0 -1
BITMAP
007FE000
00FFFC00
01FC1800
03F00000
03E00000
03E00000
07E00000
03E00000
03F00000
03F00000
03F87FF0
01F83FE0
01FC0F00
03FC0600
077E0600
0E7F0600
1C3F0600
383F8C00
381F8C00
780FC800
780FD800
F807F000
F807F000
F803F000
FC03F800
FF0FF800
7FFFFFF0
7FFCFFC0
3FF07F80
03000800
ENDCHAR
STARTCHAR 0027
ENCODING 39
SWIDTH 225 0
DWIDTH 9 0
BBX 5 11 4 18
BITMAP
78
F8
F8
F8
F0
F0
E0
E0
C0
C0
80
ENDCHAR
STARTCHAR 0028
ENCODING 40
SWIDTH 400 0
DWIDTH 16 0
BBX 16 35 2 -6
BITMAP
0007
001E
007C
00F8
01F0
03E0
07C0
07C0
0F80
1F80
1F00
3F00
3F00
7E00
7E00
7E00
FC00
FC00
FC00
FC00
FC00
FC00
FC00
FC00
FC00
FC00
FC00
7C00
7C00
7C00
3E00
1E00
0F00
0780
0100
ENDCHAR
STARTCHAR 0029
ENCODING 41
SWIDTH 400 0
DWIDTH 16 0
BBX 16 35 2 -6
BITMAP
01C0
01E0
00F8
0078
007C
003E
003E
003E
003F
003F
003F
003F
003F
003F
003F
003F
003F
007E
007E
007E
007E
00FC
00FC
00F8
01F8
01F0
03F0
03E0
07C0
0F80
0F00
1E00
7C00
F000
8000
ENDCHAR
STARTCHAR 002A
ENCODING 42
SWIDTH 525 0
DWIDTH 21 0
BBX 18 17 2 13
BITMAP
007000
00F800
00F800
00F000
00F000
78E3C0
FCE7C0
FEDFC0
FFFFC0
7FFF00
01E000
077000
1F7800
3E7C00
7E7C00
7C7C00
787800
ENDCHAR
STARTCHAR 002B
ENCODING 43
SWIDTH 525 0
DWIDTH 21 0
BBX 19 19 1 0
BITMAP
00C000
00C000
00C000
00C000
00C000
00C000
00C000
00C000
FFFFE0
FFFFE0
00C000
00C000
00C000
00C000
00C000
00C000
00C000
00C000
00C000
ENDCHAR
STARTCHAR 002C
ENCODING 44
SWIDTH 300 0
DWIDTH 12 0
BBX 12 14 -3 -7
BITMAP
01E0
03F0
03F0
07F0
07F0
0FE0
0FC0
1F80
1E00
3C00
3800
7000
6000
C000
ENDCHAR
STARTCHAR 002D
ENCODING 45
SWIDTH 325 0
DWIDTH 13 0
BBX 11 2 1 13
BITMAP
FFE0
FFE0
ENDCHAR
STARTCHAR 002E
ENCODING 46
SWIDTH 325 0
DWIDTH 13 0
BBX 7 8 3 -1
BITMAP
3C
7E
FE
FE
FE
FE
FC
20
ENDCHAR
STARTCHAR 002F
ENCODING 47
SWIDTH 375 0
DWIDTH 15 0
BBX 20 29 -2 0
BITMAP
000030
000060
000060
0000C0
000180
000180
000300
000600
000600
000C00
001C00
001800
003000
003000
006000
00C000
00C000
018000
030000
030000
060000
0E0000
0C0000
180000
180000
300000
600000
600000
C00000
ENDCHAR
STARTCHAR 0030
ENCODING 48
SWIDTH 625 0
DWIDTH 25 0
BBX 24 30 1 -1
BITMAP
000FF0
003FFC
00F0FC
01E07E
03C03E
07C03F
07803F
0F803F
1F803F
1F003F
3F003F
3F003F
7E003F
7E003F
7E007E
7E007E
FC007E
FC007C
FC00FC
FC00F8
FC00F8
FC01F0
FC01F0
FC03E0
7E03C0
7E0780
3F0F00
3FFE00
0FF800
038000
ENDCHAR
STARTCHAR 0031
ENCODING 49
SWIDTH 500 0
DWIDTH 20 0
BBX 17 29 -1 0
BITMAP
000780
003F80
03FF00
07FF00
003F00
003F00
003F00
003E00
003E00
007E00
007E00
007C00
007C00
00FC00
00FC00
00FC00
00F800
00F800
01F800
01F800
01F800
01F000
01F000
03F000
03F000
03E000
07F000
3FFE00
FFFF00
ENDCHAR
STARTCHAR 0032
ENCODING 50
SWIDTH 525 0
DWIDTH 21 0
BBX 22 29 -2 0
BITMAP
003FE0
00FFF0
03E7F8
0701FC
0400FC
0000FC
0000FC
0000FC
0000FC
0001F8
0001F8
0001F0
0003E0
0007C0
0007C0
000F80
001F00
003C00
007800
007000
00E000
01C000
038000
060000
0C07E0
1FFFC0
3FFFC0
7FFFC0
FFFF80
ENDCHAR
STARTCHAR 0033
ENCODING 51
SWIDTH 525 0
DWIDTH 21 0
BBX 22 30 -2 -1
BITMAP
007FE0
03FFF8
0003FC
0000FC
0000FC
0000FC
0000FC
0001F8
0003F0
0007E0
000FC0
001F00
007800
01FFC0
01FFE0
000FF0
0007F0
0003F0
0003F0
0003F0
0003F0
0003F0
0003E0
0007C0
000F80
001F00
007E00
03FC00
FFF000
1C0000
ENDCHAR
STARTCHAR 0034
ENCODING 52
SWIDTH 575 0
DWIDTH 23 0
BBX 21 30 0 -1
BITMAP
000038
000078
0000F0
0001F0
0003F0
0007F0
000FE0
001DE0
003BE0
0073E0
0043E0
0083C0
0187C0
0307C0
0607C0
0C0780
180F88
37FFF8
7FFFF8
7FFFF0
FFFFF0
001F00
001F00
001F00
001F00
003E00
003E00
003E00
003E00
000600
ENDCHAR
STARTCHAR 0035
ENCODING 53
SWIDTH 525 0
DWIDTH 21 0
BBX 24 30 -3 -1
BITMAP
003FFF
003FFF
007FFF
007FFE
00703E
00F000
00E000
00E000
00C000
01C000
018000
018C00
01FFC0
037FF0
0007F8
0003F8
0003F8
0001F8
0001F8
0001F8
0001F8
0001F0
0003F0
0003E0
0007C0
000F80
003F00
03FC00
7FF000
870000
ENDCHAR
STARTCHAR 0036
ENCODING 54
SWIDTH 575 0
DWIDTH 23 0
BBX 21 30 1 -1
BITMAP
0007F8
001FF8
007E00
00F800
01F000
03E000
07C000
078000
0F8000
1F0000
1F0000
3E0000
3E1F80
7E7FC0
7E0FE0
7C07E0
7C03F0
FC03F0
FC03F0
FC03F0
FC03E0
FC03E0
FC07E0
FC07C0
7E0780
7E0F80
7F1E00
3FBC00
1FF800
010000
ENDCHAR
STARTCHAR 0037
ENCODING 55
SWIDTH 500 0
DWIDTH 20 0
BBX 21 30 1 -1
BITMAP
0FFFF8
0FFFF8
0FFFF0
1FFFF0
1FC0E0
0000C0
000180
000380
000300
000600
000600
000C00
001800
003800
003000
007000
00E000
01E000
01C000
03C000
078000
0F8000
0F0000
1F0000
3E0000
7E0000
7C0000
FC0000
F80000
080000
ENDCHAR
STARTCHAR 0038
ENCODING 56
SWIDTH 575 0
DWIDTH 23 0
BBX 23 30 0 -1
BITMAP
001FE0
007FF8
01F0FC
03E07C
07C07E
07C07E
07C07E
0FC07C
0F807C
07C078
07C0F0
07C1E0
03E3C0
00FE00
01FF80
0383E0
0F03F0
1E01F0
3E01F8
3E01F8
7C01F8
7C01F0
FC01F0
FC03F0
FC03E0
7E07C0
7E0780
3F1F00
1FFC00
008000
ENDCHAR
STARTCHAR 0039
ENCODING 57
SWIDTH 575 0
DWIDTH 23 0
BBX 21 30 1 -1
BITMAP
007F80
01FFE0
03C7F0
0783F0
0F83F8
1F01F8
1F01F8
3F01F8
3F01F8
3E01F8
3E01F8
7E01F8
3F01F8
3F01F0
3F81F0
1FF3F0
0FE3E0
0003E0
0003E0
0007C0
0007C0
000F80
001F00
001E00
003E00
007C00
01F000
0FE000
FF8000
180000
ENDCHAR
STARTCHAR 003A
ENCODING 58
SWIDTH 400 0
DWIDTH 16 0
BBX 10 21 3 -1
BITMAP
0780
0FC0
1FC0
3FC0
3FC0
3F80
1F80
0E00
0000
0000
0000
0000
0000
3C00
7E00
FE00
FE00
FE00
FE00
FC00
2000
ENDCHAR
STARTCHAR 003B
ENCODING 59
SWIDTH 375 0
DWIDTH 15 0
BBX 15 27 -3 -7
BITMAP
003C
007E
00FE
01FE
01FE
01FC
00F8
0070
0000
0000
0000
0000
0000
01E0
03F0
03F0
07F0
07F0
0FE0
0FC0
1F80
1E00
3C00
3800
7000
6000
C000
ENDCHAR
STARTCHAR 003C
ENCODING 60
SWIDTH 425 0
DWIDTH 17 0
BBX 14 20 1 0
BITMAP
0004
001C
0038
00F0
01E0
0380
0F00
1E00
7800
F000
E000
7800
3C00
1E00
0780
03C0
00E0
0078
003C
000C
ENDCHAR
STARTCHAR 003D
ENCODING 61
SWIDTH 525 0
DWIDTH 21 0
BBX 19 11 1 4
BITMAP
FFFFE0
FFFFE0
000000
000000
000000
000000
000000
000000
000000
FFFFE0
FFFFE0
ENDCHAR
STARTCHAR 003E
ENCODING 62
SWIDTH 425 0
DWIDTH 17 0
BBX 15 20 1 0
BITMAP
4000
7000
B800
1C00
0F00
0380
01E0
00F0
0038
001E
000E
003C
0078
00E0
03C0
0780
0E00
3C00
7000
E000
ENDCHAR
STARTCHAR 003F
ENCODING 63
SWIDTH 450 0
DWIDTH 18 0
BBX 18 30 1 -1
BITMAP
07FC00
0FFF00
00FF80
003F80
003FC0
001FC0
001FC0
001FC0
001F80
001F80
003F80
003F00
003E00
007C00
00FC00
01F000
03E000
078000
0E0000
000000
000000
000000
1E0000
7F0000
7F0000
FF0000
FF0000
FE0000
7C0000
300000
ENDCHAR
STARTCHAR 0040
ENCODING 64
SWIDTH 950 0
DWIDTH 38 0
BBX 33 30 3 -3
BITMAP
0000060000
0001FFF000
0007C01800
001F000E00
007C000600
00F8000300
01E0000100
03C0000180
0780782180
0F01FFC180
1F070FC180
1E0E0FC180
3E1C078180
7C3C078180
7C3C0F0180
78781F0100
F8781F0300
F87C3E0200
F07C7E0600
F07FBC0C00
F07F3C0800
F07E3C3000
F0383FE000
F8003FC000
F8001E0000
F800000000
7C00000000
3E00200000
1F83E00000
07FF000000
ENDCHAR
STARTCHAR 0041
ENCODING 65
SWIDTH 725 0
DWIDTH 29 0
BBX 32 29 -4 0
BITMAP
00000F80
00000F80
00001F80
00001F80
00003F80
00007F80
00006FC0
0000CFC0
0000CFC0
00018FC0
00030FC0
000307C0
000607C0
000607E0
000C07E0
001807E0
001FFFE0
003FFFE0
00301FE0
006003E0
00E003F0
00C003F0
01C003F0
018003F0
038003F0
030003F0
0F8003F8
3FE01FFE
FFF03FFF
ENDCHAR
STARTCHAR 0042
ENCODING 66
SWIDTH 725 0
DWIDTH 29 0
BBX 28 29 0 0
BITMAP
03FFFE00
03FFFFC0
007E1FE0
007E0FE0
007E07E0
007E07F0
007E03E0
007C03E0
00FC07E0
00FC07C0
00FC0F80
00FC0F00
00F83E00
01FFF800
01FFFE00
01F8FF80
01F81FC0
01F00FC0
03F00FE0
03F00FE0
03F00FE0
03E00FC0
07E00FC0
07E01F80
07E01F80
07E03F00
0FF07C00
7FFFF800
FFFFC000
ENDCHAR
STARTCHAR 0043
ENCODING 67
SWIDTH 700 0
DWIDTH 28 0
BBX 27 30 2 -1
BITMAP
0003FF80
001FFFE0
007E07C0
00F801C0
01F001C0
03E001C0
07E000C0
0FC00080
1F800080
1F800000
3F000000
3F000000
7F000000
7E000000
7E000000
FE000000
FE000000
FE000000
FE000000
FE000000
FE000300
FE000200
7F000600
7F000E00
7F801C00
3FC03C00
1FE03C00
0FFFF800
03FFC000
00380000
ENDCHAR
STARTCHAR 0044
ENCODING 68
SWIDTH 775 0
DWIDTH 31 0
BBX 32 29 -1 0
BITMAP
03FFFF00
01FFFFE0
007F1FF0
003F07F8
003E01FC
007E00FE
007E00FE
007E007E
007E007F
00FC007F
00FC007F
00FC007F
00FC007F
00FC007F
01F8007E
01F8007E
01F8007E
01F800FC
01F800FC
03F000F8
03F001F8
03F001F0
03F003E0
03E007C0
07E00F80
07E01F00
0FF87C00
3FFFF800
FFFFC000
ENDCHAR
STARTCHAR 0045
ENCODING 69
SWIDTH 650 0
DWIDTH 26 0
BBX 28 29 -1 0
BITMAP
03FFFFF0
01FFFFF0
007F07E0
003F00E0
003F0060
007E0060
007E0060
007E0060
007E0400
00FC0400
00FC0C00
00FC1800
00FC1800
00FFF800
01FFF800
01F83800
01F83000
01F83000
01F81000
03F01000
03F00080
03F00180
03F00300
03E00300
07E00700
07E00E00
0FE07E00
3FFFFE00
FFFFFC00
ENDCHAR
STARTCHAR 0046
ENCODING 70
SWIDTH 625 0
DWIDTH 25 0
BBX 28 29 -1 0
BITMAP
03FFFFF0
01FFFFF0
007F07E0
003F00E0
003F0060
007E0060
007E0060
007E0060
007E0400
00FC0400
00FC0C00
00FC1800
00FC1800
00FFF800
01FFF800
01F83800
01F83000
01F83000
01F81000
03F01000
03F00000
03F00000
03F00000
03E00000
07E00000
07E00000
0FE00000
3FFC0000
FFFE0000
ENDCHAR
STARTCHAR 0047
ENCODING 71
SWIDTH 725 0
DWIDTH 29 0
BBX 28 30 2 -1
BITMAP
0003FF80
001FFFE0
007E07C0
00F801C0
01F001C0
03E001C0
07E000C0
0FC00080
1F800080
1F800000
3F000000
3F000000
7F000000
7E000000
7E000000
FE01FFF0
FE00FFC0
FE001F00
FE003F00
FE003F00
FE003E00
FE003E00
7F003E00
7F007E00
7F807E00
3FC07C00
1FE07C00
0FFFFC00
03FFE000
00300000
ENDCHAR
STARTCHAR 0048
ENCODING 72
SWIDTH 825 0
DWIDTH 33 0
BBX 36 29 -1 0
BITMAP
03FFE1FFF0
01FFE1FFE0
007F807F80
003E003E00
003E003E00
007E007E00
007E007E00
007E007E00
007C007C00
00FC007C00
00FC00FC00
00FC00FC00
00FC00FC00
00FFFFF800
01FFFFF800
01F803F800
01F801F800
01F001F800
01F001F000
03F003F000
03F003F000
03F003F000
03E003E000
03E003E000
07E007E000
07E007E000
0FE00FE000
3FF83FF800
FFFC7FFC00
ENDCHAR
STARTCHAR 0049
ENCODING 73
SWIDTH 450 0
DWIDTH 18 0
BBX 20 29 -1 0
BITMAP
03FFF0
01FFF0
007F80
003F00
003E00
007E00
007E00
007E00
007E00
00FC00
00FC00
00FC00
00FC00
00FC00
01F800
01F800
01F800
01F800
01F800
03F000
03F000
03F000
03F000
03E000
07E000
07E000
0FE000
3FFC00
FFFE00
ENDCHAR
STARTCHAR 004A
ENCODING 74
SWIDTH 400 0
DWIDTH 16 0
BBX 26 35 -7 -6
BITMAP
000FFFC0
001FFF80
0003FC00
0001F800
0001F800
0001F000
0003F000
0003F000
0003F000
0003F000
0007E000
0007E000
0007E000
0007E000
0007E000
000FC000
000FC000
000FC000
000FC000
000FC000
001F8000
001F8000
001F8000
001F8000
001F0000
003F0000
003F0000
003F0000
003E0000
007E0000
607C0000
F0F80000
F9F00000
FFC00000
3F000000
ENDCHAR
STARTCHAR 004B
ENCODING 75
SWIDTH 800 0
DWIDTH 32 0
BBX 34 29 -1 0
BITMAP
03FFE1FFC0
01FFE1FF80
007F807C00
003F007000
003E00E000
007E00C000
007E018000
007E030000
007C060000
00FC0C0000
00FC180000
00FC300000
00FC780000
00F8F80000
01F9F80000
01F8FC0000
01F8FC0000
01F8FE0000
01F07E0000
03F07E0000
03F03F0000
03F03F0000
03F03F8000
03E01F8000
07E01F8000
07E01FC000
0FE01FE000
3FF87FF800
FFF8FFFC00
ENDCHAR
STARTCHAR 004C
ENCODING 76
SWIDTH 650 0
DWIDTH 26 0
BBX 25 29 -1 0
BITMAP
03FFF000
01FFF000
007F8000
003F0000
003E0000
007E0000
007E0000
007E0000
007E0000
00FC0000
00FC0000
00FC0000
00FC0000
00FC0000
01F80000
01F80000
01F80000
01F80000
01F80000
03F00000
03F00080
03F00180
03F00180
03E00300
07E00700
07E00F00
0FE03E00
3FFFFE00
FFFFFC00
ENDCHAR
STARTCHAR 004D
ENCODING 77
SWIDTH 1000 0
DWIDTH 40 0
BBX 42 29 -1 0
BITMAP
03FF0000FFC0
01FF0001FF80
007F0001FE00
003F0003F800
003F8003F800
007F8007F800
007F8007F800
007F800DF000
007F800DF000
00EF801BF000
00CFC01BF000
00CFC033F000
00CFC023E000
00CFC067E000
018FC0C7E000
0187C0C7E000
0187C187E000
0187E187C000
0187E30FC000
0307E60FC000
0307E60FC000
0303EC0FC000
0303EC0F8000
0703F81F8000
0703F81F8000
0703F01F8000
0F01F03F8000
3FC1E0FFE000
FFE1C1FFF000
ENDCHAR
STARTCHAR 004E
ENCODING 78
SWIDTH 825 0
DWIDTH 33 0
BBX 36 29 -1 0
BITMAP
03FC007FF0
01FC003FE0
007E000F80
003F000E00
003F000E00
007F800E00
007F800C00
007FC00C00
007FC00C00
00EFE00C00
00CFE01800
00C7F01800
00C3F01800
00C3F81800
0181F81800
0181FC3000
0180FC3000
0180FE3000
01807F3000
03007F7000
03003FE000
03003FE000
03001FE000
07000FE000
07000FC000
070007C000
0F0007C000
3FC003C000
FFE003C000
ENDCHAR
STARTCHAR 004F
ENCODING 79
SWIDTH 775 0
DWIDTH 31 0
BBX 29 29 2 0
BITMAP
0007FE00
001FFF80
00781FC0
00F00FE0
03E007F0
07C003F0
07C003F8
0F8003F8
1F8003F8
1F0001F8
3F0001F8
3F0001F8
7E0001F8
7E0001F8
7E0003F8
FE0003F8
FE0003F0
FE0003F0
FE0003F0
FE0007E0
FE0007C0
FE000FC0
7E000F80
7F001F00
7F001E00
3F803C00
1FC0F800
0FFFE000
03FF8000
ENDCHAR
STARTCHAR 0050
ENCODING 80
SWIDTH 650 0
DWIDTH 26 0
BBX 28 29 -1 0
BITMAP
03FFFE00
01FFFFC0
007F1FE0
003F0FE0
003E07F0
007E03F0
007E03F0
007E03F0
007E03F0
00FC03F0
00FC03E0
00FC07E0
00FC07C0
00FC0F80
01F81F00
01F8FE00
01F8F000
01F90000
01F80000
03F00000
03F00000
03F00000
03F00000
03E00000
07E00000
07E00000
0FE00000
3FFC0000
FFFE0000
ENDCHAR
STARTCHAR 0051
ENCODING 81
SWIDTH 775 0
DWIDTH 31 0
BBX 29 36 2 -7
BITMAP
0007FE00
001FFF80
00781FC0
00F00FE0
03E007F0
07C003F0
07C003F8
0F8003F8
1F8003F8
1F0001F8
3F0001F8
3F0001F8
7E0001F8
7E0001F8
7E0003F8
FE0003F8
FE0003F0
FE0003F0
FE0003E0
FE0007E0
FE0007C0
FE000FC0
7E000F80
7F001F00
7F001E00
3F803C00
1FC0F800
0FFFE000
03FF8000
0000F800
00007FC0
00001FF0
00000FF8
000003F8
000001F0
00000070
ENDCHAR
STARTCHAR 0052
ENCODING 82
SWIDTH 700 0
DWIDTH 28 0
BBX 29 29 -1 0
BITMAP
03FFFE00
01FFFFC0
007F1FE0
003F0FE0
003E07F0
007E03F0
007E03F0
007E03F0
007E03F0
00FC03E0
00FC03E0
00FC07C0
00FC0F80
00FC1F00
01FFFC00
01FFF800
01F8FC00
01F8FC00
01F87C00
03F07E00
03F07E00
03F03F00
03F03F00
03E01F80
07E01F80
07E01F80
0FE01FC0
3FFC0FF8
FFFE0FF8
ENDCHAR
STARTCHAR 0053
ENCODING 83
SWIDTH 600 0
DWIDTH 24 0
BBX 24 30 0 -1
BITMAP
001FFC
007E7F
00F01E
01E00E
03E00E
07E006
07E006
07E006
07E004
07F000
07F800
07FE00
03FF80
01FFC0
007FF0
003FF0
000FF8
0007F8
0003F8
0001F8
6001F8
6001F8
6001F8
7001F0
7003F0
F007E0
F80FC0
FE7F00
7FFC00
018000
ENDCHAR
STARTCHAR 0054
ENCODING 84
SWIDTH 675 0
DWIDTH 27 0
BBX 26 29 3 0
BITMAP
3FFFFFC0
3FFFFFC0
7E1F0FC0
703F01C0
603F0180
603F0180
C03F0180
807E0180
007E0000
007E0000
007E0000
007E0000
00FC0000
00FC0000
00FC0000
00FC0000
00FC0000
01F80000
01F80000
01F80000
01F80000
01F00000
03F00000
03F00000
03F00000
03F00000
07F00000
3FFC0000
7FFE0000
ENDCHAR
STARTCHAR 0055
ENCODING 85
SWIDTH 800 0
DWIDTH 32 0
BBX 30 30 4 -1
BITMAP
7FFE0FFC
7FFC0FF8
1FF003E0
0FC001C0
0FC00180
0FC00380
0FC00380
1F800300
1F800300
1F800300
1F800300
1F800600
3F000600
3F000600
3F000600
3F000600
3F000C00
7E000C00
7E000C00
7E000C00
7E000C00
7C001800
FC001800
FC001800
FE003000
7E007000
7F81C000
3FFF8000
1FFE0000
01E00000
ENDCHAR
STARTCHAR 0056
ENCODING 86
SWIDTH 775 0
DWIDTH 31 0
BBX 31 29 3 0
BITMAP
FFFE0FFE
7FFC0FFE
1FE001F0
0FC001C0
0FC001C0
0FC00380
0FC00380
07C00700
07E00600
07E00600
07E00C00
07E00C00
07E01800
03E01000
03E03000
03E06000
03F06000
03F0C000
03F1C000
03F18000
01F30000
01F30000
01F60000
01FE0000
01FC0000
01FC0000
01F80000
00F00000
00F00000
ENDCHAR
STARTCHAR 0057
ENCODING 87
SWIDTH 1075 0
DWIDTH 43 0
BBX 42 29 3 0
BITMAP
FFFE0F81FFC0
7FFC0F80FFC0
1FE01F803E00
0FC01F801C00
0FC01F803800
0FC03F803000
0FC03F807000
0FC07F806000
0FC06F806000
0FC0CFC0C000
0FC0CFC0C000
0FC087C18000
07C187C18000
07C107C10000
07C307C30000
07C207C20000
07C607C60000
07CC07CC0000
07CC07CC0000
07D807D80000
07D807D80000
07F007F00000
07F007F00000
07E007E00000
07E007E00000
07C007C00000
07C007C00000
078003800000
078003800000
ENDCHAR
STARTCHAR 0058
ENCODING 88
SWIDTH 725 0
DWIDTH 29 0
BBX 34 29 -3 0
BITMAP
01FFF9FFC0
01FFF1FF80
007FC07E00
001F803800
001F807000
001F80E000
000FC0C000
000FC18000
0007C38000
0007C30000
0007E60000
0003EC0000
0003F80000
0003F00000
0001F00000
0001F80000
0003F80000
0006FC0000
000C7C0000
00187C0000
00307E0000
00703E0000
00E03F0000
01C03F0000
03801F0000
07801F8000
0F803FC000
7FE0FFF000
FFE1FFF800
ENDCHAR
STARTCHAR 0059
ENCODING 89
SWIDTH 675 0
DWIDTH 27 0
BBX 28 29 3 0
BITMAP
FFFC7FF0
FFF83FE0
3FE01F80
1FC00E00
0FC01C00
0FC01800
07E03000
07E03000
07E06000
03E0C000
03F18000
03F18000
01F30000
01FE0000
00FE0000
00FC0000
00FC0000
01F80000
01F80000
01F80000
01F80000
01F80000
03F00000
03F00000
03F00000
03F00000
07F00000
3FFC0000
7FFE0000
ENDCHAR
STARTCHAR 005A
ENCODING 90
SWIDTH 525 0
DWIDTH 21 0
BBX 27 29 -3 0
BITMAP
00FFFFE0
00FFFFC0
01FE1FC0
01C03F80
01C03F00
01807E00
0300FE00
0300FC00
0001F800
0003F000
0003F000
0007E000
000FC000
001F8000
001F8000
003F0000
007E0000
00FE0000
00FC0000
01F80000
03F00200
07F00600
07E00C00
0FC00C00
1FC01C00
1F803800
3F01F800
7FFFF800
FFFFF000
ENDCHAR
STARTCHAR 005B
ENCODING 91
SWIDTH 425 0
DWIDTH 17 0
BBX 17 33 2 -4
BITMAP
01FF80
01FF80
03F000
03F000
03E000
03E000
07E000
07E000
07C000
07C000
07C000
0FC000
0FC000
0F8000
0F8000
0F8000
1F8000
1F8000
1F0000
1F0000
1F0000
3F0000
3F0000
3E0000
3E0000
7E0000
7E0000
7C0000
7C0000
7C0000
FC0000
FFC000
FFC000
ENDCHAR
STARTCHAR 005C
ENCODING 92
SWIDTH 375 0
DWIDTH 15 0
BBX 7 30 4 -1
BITMAP
C0
C0
C0
40
60
60
60
60
20
30
30
30
30
30
18
18
18
18
18
08
0C
0C
0C
0C
04
06
06
06
06
04
ENDCHAR
STARTCHAR 005D
ENCODING 93
SWIDTH 400 0
DWIDTH 16 0
BBX 17 33 -2 -4
BITMAP
01FF80
01FF80
001F80
001F80
001F00
001F00
003F00
003F00
003E00
003E00
003E00
007E00
007E00
007C00
007C00
007C00
00FC00
00FC00
00F800
00F800
01F800
01F800
01F000
01F000
01F000
03F000
03F000
03E000
03E000
03E000
07E000
7FE000
FFC000
ENDCHAR
STARTCHAR 005F
ENCODING 95
SWIDTH 400 0
DWIDTH 16 0
BBX 16 2 0 -5
BITMAP
FFFF
FFFF
ENDCHAR
STARTCHAR 0060
ENCODING 96
SWIDTH 550 0
DWIDTH 22 0
BBX 9 7 10 22
BITMAP
7800
7C00
FC00
7E00
1F00
0380
0080
ENDCHAR
STARTCHAR 0061
ENCODING 97
SWIDTH 550 0
DWIDTH 22 0
BBX 20 21 1 -1
BITMAP
00F060
03FCC0
07FFC0
0C3FC0
0C1FC0
180FC0
380780
380780
380F80
780F80
781F80
781F00
783F00
F83F00
FC5F00
FCDF10
7FBF30
7F3F60
7F3FC0
3E1F00
100C00
ENDCHAR
STARTCHAR 0062
ENCODING 98
SWIDTH 550 0
DWIDTH 22 0
BBX 19 33 1 -1
BITMAP
001800
00F800
0FF000
1FF000
03F000
03F000
03E000
03E000
03E000
07E000
07E000
07C000
07C380
07C7C0
0FCFC0
0FDFE0
0FBFE0
0FA3E0
0FC3E0
1FC3E0
1F83E0
1F83E0
1F03E0
3F03C0
3F03C0
3E0380
3E0380
3F0380
7F8300
7FC600
7FFC00
67F800
C0C000
ENDCHAR
STARTCHAR 0063
ENCODING 99
SWIDTH 425 0
DWIDTH 17 0
BBX 16 21 1 -1
BITMAP
003C
01FF
03FF
061F
0E06
1C00
1C00
3C00
3C00
7C00
7C00
7C00
7C00
FC00
FC00
7C00
7E0C
7F18
3FF0
3FE0
0700
ENDCHAR
STARTCHAR 0064
ENCODING 100
SWIDTH 550 0
DWIDTH 22 0
BBX 21 33 1 -1
BITMAP
000008
000078
0007F8
000FF8
0001F8
0001F0
0001F0
0001F0
0003F0
0003E0
0003E0
0003E0
00F7E0
03FFE0
07FFC0
0C3FC0
0C1FC0
180FC0
3807C0
380780
380F80
780F80
781F80
781F00
783F00
F83F00
FC5F00
FCDF10
7FBF30
7F3F60
7F3FC0
3E1F00
100C00
ENDCHAR
STARTCHAR 0065
ENCODING 101
SWIDTH 450 0
DWIDTH 18 0
BBX 16 21 1 -1
BITMAP
003C
01FE
03FF
061F
0E1F
1C0F
3C1F
3C1E
3C3C
7CF8
7FC0
7C00
FC00
FC00
FC00
7E08
7E0C
7F18
3FF0
1FC0
0200
ENDCHAR
STARTCHAR 0066
ENCODING 102
SWIDTH 425 0
DWIDTH 17 0
BBX 29 43 -5 -11
BITMAP
000003C0
00001FF0
000079F0
0000F0F8
0001F070
0001E000
0003E000
0003E000
0007E000
0007C000
0007C000
0007C000
000FC000
007FFE00
00FFFC00
000F8000
000F8000
001F8000
001F8000
001F0000
001F0000
001F0000
003F0000
003E0000
003E0000
003E0000
007E0000
007E0000
007C0000
007C0000
007C0000
00FC0000
00FC0000
00F80000
00F80000
00F80000
01F00000
01F00000
41E00000
F3C00000
FF800000
FE000000
78000000
ENDCHAR
STARTCHAR 0067
ENCODING 103
SWIDTH 525 0
DWIDTH 21 0
BBX 26 32 -3 -10
BITMAP
00000380
00000780
000F8FC0
003FFF80
00F1F000
01E0F000
01E0F800
03E0F800
07C0F800
07C0F800
07C1F000
07C1F000
07C1E000
07C3C000
03E78000
01FF0000
00200000
00600000
00E00000
00F80000
00FFC000
00FFF800
037FFC00
061FFC00
1C00FC00
3C007C00
7C007C00
7C007800
FC007800
7F00E000
7FC3C000
1FFE0000
ENDCHAR
STARTCHAR 0068
ENCODING 104
SWIDTH 550 0
DWIDTH 22 0
BBX 19 33 1 -1
BITMAP
001000
00F000
0FF000
1FF000
03F000
03E000
03E000
03E000
07E000
07E000
07C000
07C000
0FC380
0FC7C0
0F8FE0
0F9FE0
0FBFE0
1FE3E0
1FC3E0
1FC3E0
1F83E0
1F83E0
3F03E0
3F03E0
3E03C0
3E03C0
7C03C0
7C0380
7C4380
78F700
79FE00
F8FC00
006000
ENDCHAR
STARTCHAR 0069
ENCODING 105
SWIDTH 350 0
DWIDTH 14 0
BBX 13 32 1 -1
BITMAP
0080
03E0
03F0
03F0
03F0
03E0
01C0
0000
0000
0000
0000
0380
0FC0
3FC0
67C0
C7C0
87C0
0FC0
0FC0
0F80
0F80
0F80
1F80
1F80
1F00
1F00
1F10
3F38
3F60
3FC0
1F80
0C00
ENDCHAR
STARTCHAR 006A
ENCODING 106
SWIDTH 350 0
DWIDTH 14 0
BBX 20 42 -7 -11
BITMAP
000080
0003E0
0003F0
0003F0
0003F0
0003E0
0001C0
000000
000000
000000
000000
000380
000FC0
003FC0
0067C0
00C7C0
0087C0
000FC0
000FC0
000FC0
000F80
000F80
001F80
001F80
001F00
001F00
001F00
003F00
003F00
003E00
003E00
003E00
007E00
007C00
007C00
007C00
00F800
20F000
F8F000
FDC000
7F8000
3C0000
ENDCHAR
STARTCHAR 006B
ENCODING 107
SWIDTH 575 0
DWIDTH 23 0
BBX 22 35 1 -3
BITMAP
001000
00F000
0FF000
1FF000
03F000
03E000
03E000
03E000
07E000
07E000
07C000
07C000
0FC3C0
0FC7E0
0F8FF0
0F9FF0
0FB1F8
1FE1F8
1FC1F0
1FC1F0
1F81E0
1F83C0
3F0F00
3F3E00
3E3E00
3E3E00
7C1E00
7C1F00
7C1F00
781F08
780F8C
F80FF8
0007F0
0007E0
000180
ENDCHAR
STARTCHAR 006C
ENCODING 108
SWIDTH 325 0
DWIDTH 13 0
BBX 12 33 1 -1
BITMAP
0030
01F0
1FE0
3FE0
07E0
07E0
07E0
07C0
07C0
07C0
0FC0
0F80
0F80
0F80
1F80
1F80
1F00
1F00
1F00
3F00
3F00
3E00
3E00
3E00
7E00
7C00
7C00
7C40
FC60
FD80
FF00
7E00
3000
ENDCHAR
STARTCHAR 006D
ENCODING 109
SWIDTH 875 0
DWIDTH 35 0
BBX 34 21 1 -1
BITMAP
0380E03C00
0FC3F07E00
3FC7F9FE00
67CFF9FE00
C7D9FB3E00
87D1FE3E00
0FE1F43E00
0FE1F87E00
0FC1F87C00
0FC3F07C00
0F83F07C00
1F83E0FC00
1F03E0FC00
1F07E0F800
1F07C0F800
1E07C0F880
3E07C1F9C0
3E0781FB00
3C0F81FE00
3C0780FC00
0000006000
ENDCHAR
STARTCHAR 006E
ENCODING 110
SWIDTH 625 0
DWIDTH 25 0
BBX 23 21 1 -1
BITMAP
0380E0
0FC3F0
3FC7F8
67CFF8
C7D9F8
87D1F8
0FE1F0
0FE1F0
0FC1F0
0FC3F0
0F83F0
1F83E0
1F03E0
1F07E0
1F07E0
1E07C2
3E07C6
3E07CC
3C07F8
3C07E0
000380
ENDCHAR
STARTCHAR 006F
ENCODING 111
SWIDTH 525 0
DWIDTH 21 0
BBX 17 21 2 -1
BITMAP
00F800
03FE00
071F00
0F1F80
1E0F80
3E0F80
3C0F80
7C0F80
7C0F80
FC0F80
FC0F80
F81F80
F81F80
F81F00
F81F00
F83E00
FC3C00
7C7800
7CF000
3FE000
070000
ENDCHAR
STARTCHAR 0070
ENCODING 112
SWIDTH 550 0
DWIDTH 22 0
BBX 25 30 -4 -10
BITMAP
001C0C00
007E3F00
01FE3F00
033E7F80
063EFF80
043F9F80
003F0F80
007F0F80
007E0F80
007E0F80
007C0F00
00FC0F00
00F80F00
00F80E00
00F80E00
00F80C00
01FC0C00
01FE1800
01FFF000
01FFE000
01F30000
03F00000
03E00000
03E00000
03E00000
07E00000
07E00000
07E00000
3FFC0000
FFFF0000
ENDCHAR
STARTCHAR 0071
ENCODING 113
SWIDTH 550 0
DWIDTH 22 0
BBX 19 30 1 -10
BITMAP
00F060
03FCE0
07FFE0
0C3FC0
0C1FC0
180FC0
3807C0
380780
380F80
780F80
781F80
781F80
783F00
F83F00
FC7F00
FCFF00
7FBF00
7F3E00
7F3E00
3E7E00
107E00
007C00
007C00
00FC00
00FC00
00FC00
00F800
01FC00
1FFF00
7FFF80
ENDCHAR
STARTCHAR 0072
ENCODING 114
SWIDTH 450 0
DWIDTH 18 0
BBX 19 20 1 0
BITMAP
0381C0
0FC7E0
3FC7E0
67CFE0
C7D880
87D000
0FE000
0FE000
0FC000
0FC000
0F8000
1F8000
1F0000
1F0000
1F0000
1E0000
3E0000
3E0000
3C0000
3C0000
ENDCHAR
STARTCHAR 0073
ENCODING 115
SWIDTH 450 0
DWIDTH 18 0
BBX 16 21 1 -1
BITMAP
01F8
07FE
0E7E
1C1F
1C0E
1E00
1F00
1F80
1FC0
0FF0
0FF8
03FC
01FC
00FC
007E
403C
F03C
F838
FC70
7FE0
0600
ENDCHAR
STARTCHAR 0074
ENCODING 116
SWIDTH 400 0
DWIDTH 16 0
BBX 14 26 2 -1
BITMAP
00E0
07E0
07C0
07C0
0FC0
0FC0
FFFC
FFFC
0F80
1F80
1F80
1F00
1F00
1F00
3F00
3F00
3E00
3E00
7E00
7E00
7C20
7C60
7CC0
7F80
7E00
3800
ENDCHAR
STARTCHAR 0075
ENCODING 117
SWIDTH 625 0
DWIDTH 25 0
BBX 23 21 1 -1
BITMAP
038000
0FC078
3FC078
67C0F8
C7C0F8
87C0F8
0FC1F0
0FC1F0
0F81F0
0F83F0
0F83F0
1F87E0
1F87E0
1F0FE0
1F0FE0
1F17C2
3F37C6
3FE7CC
3FC7F8
1F87E0
0E0380
ENDCHAR
STARTCHAR 0076
ENCODING 118
SWIDTH 525 0
DWIDTH 21 0
BBX 19 21 1 -1
BITMAP
038180
0FC3C0
3FC3C0
67C3C0
C7C1E0
87C0C0
07C0C0
0FC0C0
0F80C0
0F8080
0F8180
1F8180
1F0300
1F0200
1F0600
3F0C00
3F1800
3FB000
3FE000
1FC000
0E0000
ENDCHAR
STARTCHAR 0077
ENCODING 119
SWIDTH 800 0
DWIDTH 32 0
BBX 30 21 1 -1
BITMAP
03802038
0FC07C7C
3FC0787C
67C0783C
C7C0F81C
87C0F81C
0FC0F80C
0F81F00C
0F81F008
0F81F018
1F83F018
1F83F030
1F07E030
1F07E060
1F0FE0C0
3F0BE180
3F1BE300
3FB3F600
1FE3FC00
1FC3F800
0E01C000
ENDCHAR
STARTCHAR 0078
ENCODING 120
SWIDTH 525 0
DWIDTH 21 0
BBX 22 21 0 -1
BITMAP
00E078
03F0FC
0FF1FC
19F3F8
30FA00
20FC00
00FC00
00F800
00F800
00F800
00F800
00F800
00F800
00F800
00F800
01F820
637C60
FE7CC0
FE7F80
FC3E00
701800
ENDCHAR
STARTCHAR 0079
ENCODING 121
SWIDTH 525 0
DWIDTH 21 0
BBX 21 31 -2 -11
BITMAP
007070
01F878
07F8F8
0CF878
18F838
10F818
00F818
01F818
01F818
01F818
01F010
01F030
01F020
01F060
03F040
03F0C0
03F180
03F780
03FF00
01FB00
00E600
000400
000C00
001800
003800
00F000
7FE000
FFC000
FF8000
FE0000
700000
ENDCHAR
STARTCHAR 007A
ENCODING 122
SWIDTH 500 0
DWIDTH 20 0
BBX 18 21 0 -1
BITMAP
01F080
07FFC0
0FFF80
0FFF00
0FFE00
1C0C00
180800
101800
003000
006180
00C3C0
0183C0
0303C0
0601C0
0400C0
0C0180
1FFF00
3FFF00
7FFC00
FFF000
800000
ENDCHAR
STARTCHAR 007B
ENCODING 123
SWIDTH 400 0
DWIDTH 16 0
BBX 16 35 2 -6
BITMAP
001F
007C
00F8
01F0
01F0
03F0
03F0
03E0
03E0
03E0
07E0
07E0
07C0
07C0
0F80
0F00
7E00
F800
3E00
1F00
1F00
1F00
1F00
1F00
3F00
3F00
3E00
3E00
7E00
7E00
7E00
7C00
3E00
1F00
0F80
ENDCHAR
STARTCHAR 007C
ENCODING 124
SWIDTH 175 0
DWIDTH 7 0
BBX 9 33 -1 -4
BITMAP
0180
0180
0180
0100
0300
0300
0300
0300
0200
0600
0600
0600
0400
0400
0C00
0C00
0C00
0800
1800
1800
1800
1800
1000
3000
3000
3000
2000
2000
6000
6000
6000
4000
C000
ENDCHAR
STARTCHAR 007D
ENCODING 125
SWIDTH 400 0
DWIDTH 16 0
BBX 17 35 -2 -6
BITMAP
01F000
007C00
003E00
003E00
003E00
003E00
007E00
007E00
007C00
007C00
007C00
00FC00
00FC00
00F800
00F800
007C00
003E00
001F80
007C00
00F800
01F000
03F000
03E000
03E000
03E000
07E000
07E000
07C000
07C000
0FC000
0F8000
0F8000
1F0000
7E0000
F80000
ENDCHAR
STARTCHAR 007E
ENCODING 126
SWIDTH 575 0
DWIDTH 23 0
BBX 19 8 3 12
BITMAP
030000
0FC000
1FF040
3FFCE0
7FFFC0
C3FF80
00FF00
007E00
ENDCHAR
STARTCHAR 00A0
ENCODING 160
SWIDTH 250 0
DWIDTH 10 0
BBX 0 0 0 0
BITMAP
ENDCHAR
STARTCHAR 00A1
ENCODING 161
SWIDTH 350 0
DWIDTH 14 0
BBX 13 30 0 -10
BITMAP
00E0
03F0
07F8
07F8
07F0
07F0
07E0
03C0
0000
0000
0100
0300
0300
0700
0700
0700
0F00
0F00
1F00
1F00
3F00
3F00
3F00
7F00
7F00
FF00
FF00
FE00
FE00
7800
ENDCHAR
STARTCHAR 00A2
ENCODING 162
SWIDTH 500 0
DWIDTH 20 0
BBX 17 30 1 -5
BITMAP
000200
000600
000400
000400
000C00
003F00
00FF80
039380
071380
0E3380
1C2100
3C2100
7C6100
784000
784000
F88000
F88000
F98000
F90000
FD0000
FF0000
7E0000
7F8000
3FFE00
0FFC00
0C0000
080000
080000
180000
100000
ENDCHAR
STARTCHAR 00A3
ENCODING 163
SWIDTH 575 0
DWIDTH 23 0
BBX 25 29 -1 0
BITMAP
0003FF00
000FFF80
001FC000
001F8000
003F0000
003E0000
007E0000
007E0000
007C0000
00FC0000
00FC0000
00FC0000
00F80000
07FFE000
01F80000
01F00000
03F00000
03F00000
03E00000
07E00000
07C00000
07C00000
0F800000
0F000000
1E03C000
1FFFC000
3FFFC000
7FFF8000
FFFF8000
ENDCHAR
STARTCHAR 00A4
ENCODING 164
SWIDTH 750 0
DWIDTH 30 0
BBX 29 30 2 -1
BITMAP
0000FFF0
0007FFF8
000F80F8
003E0070
007C0070
00F80030
01F80030
03F00030
03F00030
07E00000
0FE00000
0FC00000
3FFFF800
3FFFF000
5FC00000
1F800000
1F800000
3F800000
FFFFC000
FFFF8000
FFFF80C0
1FC000C0
1FC00180
1FC00380
0FE00780
0FF00700
07F80F00
03FFFF00
00FFF800
00040000
ENDCHAR
STARTCHAR 00A5
ENCODING 165
SWIDTH 750 0
DWIDTH 30 0
BBX 28 29 3 0
BITMAP
FFFC7FF0
FFF83FE0
3FE01F80
1FC00E00
0FC01C00
0FC01800
07E03000
07E03000
07E06000
03E0C000
3FF1FC00
3FF1FC00
41F30000
01FE0000
00FE0000
00FC0000
00FC0000
01F80000
FFFFF000
FFFFF000
01F80000
01F80000
03F00000
03F00000
03F00000
03F00000
07F00000
3FFC0000
7FFE0000
ENDCHAR
STARTCHAR 00A7
ENCODING 167
SWIDTH 525 0
DWIDTH 21 0
BBX 21 32 0 -3
BITMAP
000FF0
0039F8
0070F8
00E078
014000
03C000
02C000
06C000
04C000
044000
046000
043000
041800
060C00
020600
030300
018100
00C180
006080
003080
001880
000880
000C80
000C80
000D80
000D00
000F00
F00E00
F81C00
FC3800
7FF000
0F8000
ENDCHAR
STARTCHAR 00A8
ENCODING 168
SWIDTH 550 0
DWIDTH 22 0
BBX 13 5 8 25
BITMAP
3010
7878
F878
F8F8
7070
ENDCHAR
STARTCHAR 00A9
ENCODING 169
SWIDTH 525 0
DWIDTH 21 0
BBX 27 31 -7 -11
BITMAP
00007060
0001FEE0
0003FFE0
00061FC0
000C0FC0
001C07C0
001C07C0
003C07C0
003C0F80
003C0F80
003C1F80
007C1F80
007C3F80
007C3F80
007E7F80
007FDF00
007F9F00
003F1F00
003E1F00
01F01F00
07801F00
1E001E00
3C001E00
7C001E00
7C003C00
FC003C00
FE003800
FF007800
7FC0E000
3FFFC000
03FC0000
ENDCHAR
STARTCHAR 00AA
ENCODING 170
SWIDTH 375 0
DWIDTH 15 0
BBX 12 16 3 14
BITMAP
0020
0FE0
13E0
31E0
60E0
61C0
61C0
E3C0
E3C0
F7D0
FFD0
7BE0
71C0
0000
FFE0
FFE0
ENDCHAR
STARTCHAR 00AB
ENCODING 171
SWIDTH 525 0
DWIDTH 21 0
BBX 19 16 1 3
BITMAP
004020
006060
00C0C0
0381C0
078780
0F0F80
3F1F00
7E3E00
7C7E00
FE7E00
3E3E00
1E1E00
0E0F00
0E0700
070300
030300
ENDCHAR
STARTCHAR 00AD
ENCODING 173
SWIDTH 525 0
DWIDTH 21 0
BBX 19 2 1 9
BITMAP
FFFFE0
FFFFE0
ENDCHAR
STARTCHAR 00AF
ENCODING 175
SWIDTH 525 0
DWIDTH 21 0
BBX 9 2 10 26
BITMAP
FF80
FF80
ENDCHAR
STARTCHAR 00B0
ENCODING 176
SWIDTH 350 0
DWIDTH 14 0
BBX 10 11 2 19
BITMAP
0800
3F00
6180
C0C0
8040
8040
8040
8040
C0C0
6180
3F00
ENDCHAR
STARTCHAR 00B2
ENCODING 178
SWIDTH 375 0
DWIDTH 15 0
BBX 14 16 1 13
BITMAP
03F0
0DFC
003C
001C
001C
001C
003C
0038
0030
0060
00C0
0180
0600
0878
3FF8
FFF0
ENDCHAR
STARTCHAR 00B3
ENCODING 179
SWIDTH 350 0
DWIDTH 14 0
BBX 13 16 1 13
BITMAP
07F0
19F8
0038
0038
0030
0060
01C0
07E0
01F0
0070
0070
0070
0070
00E0
03C0
FF00
ENDCHAR
STARTCHAR 00B4
ENCODING 180
SWIDTH 550 0
DWIDTH 22 0
BBX 10 7 10 22
BITMAP
03C0
07C0
0FC0
1F80
7C00
E000
8000
ENDCHAR
STARTCHAR 00B6
ENCODING 182
SWIDTH 575 0
DWIDTH 23 0
BBX 22 33 3 -4
BITMAP
00FFFC
07FFFC
0FF8E0
1FF9C0
3FF980
7FF180
7FF180
7FF180
FFF380
FFF300
FFE300
FFE300
7FE300
7FE700
3FE600
0FC600
00C600
00CE00
01CC00
018C00
018C00
018C00
019C00
039800
031800
031800
031800
033800
073000
063000
1E3C00
7E7F00
FE7F00
ENDCHAR
STARTCHAR 00B7
ENCODING 183
SWIDTH 350 0
DWIDTH 14 0
BBX 8 8 3 7
BITMAP
1C
3E
7F
FF
FF
FE
FC
78
ENDCHAR
STARTCHAR 00B8
ENCODING 184
SWIDTH 425 0
DWIDTH 17 0
BBX 7 8 3 -8
BITMAP
0E
18
1E
3E
0E
0E
7C
A0
ENDCHAR
STARTCHAR 00B9
ENCODING 185
SWIDTH 350 0
DWIDTH 14 0
BBX 10 16 2 13
BITMAP
00C0
0F80
1380
0380
0380
0380
0700
0700
0700
0700
0F00
0E00
0E00
0E00
0E00
FFC0
ENDCHAR
STARTCHAR 00BA
ENCODING 186
SWIDTH 350 0
DWIDTH 14 0
BBX 11 15 3 14
BITMAP
0FC0
19C0
39E0
71E0
71E0
F1E0
F1E0
F1C0
F1C0
7380
7700
3C00
0000
FFC0
FFC0
ENDCHAR
STARTCHAR 00BB
ENCODING 187
SWIDTH 525 0
DWIDTH 21 0
BBX 19 16 1 3
BITMAP
101000
181800
1C1C00
1C0E00
1E0F00
0F0F80
0F8F80
0FC7C0
0FC7E0
0F8FC0
1F1F00
3E1E00
383C00
707000
E06000
80C000
ENDCHAR
STARTCHAR 00BC
ENCODING 188
SWIDTH 775 0
DWIDTH 31 0
BBX 27 29 2 0
BITMAP
00C000C0
0F800180
13800300
03800200
03800400
03800C00
07001800
07003000
07002000
07004000
0F00C000
0E018000
0E010100
0E020700
0E060F00
7F8C1F00
80583700
00106E00
00208E00
00618E00
00C30E00
01860C00
010FFFE0
020FFFC0
06101C00
0C001C00
08003800
10003800
30003800
ENDCHAR
STARTCHAR 00BD
ENCODING 189
SWIDTH 825 0
DWIDTH 33 0
BBX 28 29 2 0
BITMAP
00C000C0
0F800180
13800300
03800200
03800400
03800C00
07001800
07003000
07002000
07004000
0F00C000
0E018000
0E010000
0E023FC0
0E0641F0
7F8C00F0
80580070
00100070
00200070
006000E0
00C000E0
018001C0
01000380
02000700
06000C00
0C001800
080067E0
1001FFC0
3003FFC0
ENDCHAR
STARTCHAR 00BE
ENCODING 190
SWIDTH 775 0
DWIDTH 31 0
BBX 27 29 2 0
BITMAP
07F000C0
19F80180
00380300
00380200
00300400
00600C00
01C01800
07E03000
01F02000
00784000
0078C000
00718000
00710180
00E20300
03C60700
FF0C0F00
00181700
00102700
0020C600
00618E00
00C30E00
00860E00
010FFFE0
020FFFC0
06001C00
0C001C00
08001C00
10003800
30003800
ENDCHAR
STARTCHAR 00BF
ENCODING 191
SWIDTH 450 0
DWIDTH 18 0
BBX 18 30 -1 -10
BITMAP
000700
001F80
003FC0
003FC0
003F80
003F80
003F00
001E00
000000
000000
000800
003C00
00F000
03E000
07C000
0F8000
1F8000
3F0000
7E0000
7E0000
FE0000
FE0000
FE0000
FE0000
FE0000
FE0000
FF0000
7FFC00
3FFC00
03E000
ENDCHAR
STARTCHAR 00C0
ENCODING 192
SWIDTH 725 0
DWIDTH 29 0
BBX 32 37 -4 0
BITMAP
00001C00
00003F00
00003F80
00001FC0
000003F0
00000000
00000000
00000000
00000F80
00000F80
00001F80
00001F80
00003F80
00007F80
00006FC0
0000CFC0
0000CFC0
00018FC0
00030FC0
000307C0
000607C0
000607E0
000C07E0
001807E0
001FFFE0
003FFFE0
00301FE0
006003E0
00E003F0
00C003F0
01C003F0
018003F0
038003F0
030003F0
0F8003F8
3FE01FFE
FFF03FFF
ENDCHAR
STARTCHAR 00C1
ENCODING 193
SWIDTH 725 0
DWIDTH 29 0
BBX 32 37 -4 0
BITMAP
00000070
000001F0
000007F0
00000FE0
00003F00
00000000
00000000
00000000
00000F80
00000F80
00001F80
00001F80
00003F80
00007F80
00006FC0
0000CFC0
0000CFC0
00018FC0
00030FC0
000307C0
000607C0
000607E0
000C07E0
001807E0
001FFFE0
003FFFE0
00301FE0
006003E0
00E003F0
00C003F0
01C003F0
018003F0
038003F0
030003F0
0F8003F8
3FE01FFE
FFF03FFF
ENDCHAR
STARTCHAR 00C2
ENCODING 194
SWIDTH 725 0
DWIDTH 29 0
BBX 32 37 -4 0
BITMAP
00000380
000007C0
00000FE0
00003FF0
00006038
00000000
00000000
00000000
00000F80
00000F80
00001F80
00001F80
00003F80
00007F80
00006FC0
0000CFC0
0000CFC0
00018FC0
00030FC0
000307C0
000607C0
000607E0
000C07E0
001807E0
001FFFE0
003FFFE0
00301FE0
006003E0
00E003F0
00C003F0
01C003F0
018003F0
038003F0
030003F0
0F8003F8
3FE01FFE
FFF03FFF
ENDCHAR
STARTCHAR 00C3
ENCODING 195
SWIDTH 725 0
DWIDTH 29 0
BBX 32 36 -4 0
BITMAP
00001F00
00003FF8
00007FF0
000003E0
00000000
00000000
00000000
00000F80
00000F80
00001F80
00001F80
00003F80
00007F80
00006FC0
0000CFC0
0000CFC0
00018FC0
00030FC0
000307C0
000607C0
000607E0
000C07E0
001807E0
001FFFE0
003FFFE0
00301FE0
006003E0
00E003F0
00C003F0
01C003F0
018003F0
038003F0
030003F0
0F8003F8
3FE01FFE
FFF03FFF
ENDCHAR
STARTCHAR 00C4
ENCODING 196
SWIDTH 725 0
DWIDTH 29 0
BBX 32 37 -4 0
BITMAP
00000808
00003C3C
00007C3C
00007C3C
00003838
00000000
00000000
00000000
00000F80
00000F80
00001F80
00001F80
00003F80
00007F80
00006FC0
0000CFC0
0000CFC0
00018FC0
00030FC0
000307C0
000607C0
000607E0
000C07E0
001807E0
001FFFE0
003FFFE0
00301FE0
006003E0
00E003F0
00C003F0
01C003F0
018003F0
038003F0
030003F0
0F8003F8
3FE01FFE
FFF03FFF
ENDCHAR
STARTCHAR 00C5
ENCODING 197
SWIDTH 725 0
DWIDTH 29 0
BBX 32 39 -4 0
BITMAP
00000080
00000360
00000620
00000C20
00000C60
00000C60
000007C0
00000200
00000000
00000000
00000F80
00000F80
00001F80
00001F80
00003F80
00007F80
00006FC0
0000CFC0
0000CFC0
00018FC0
00030FC0
000307C0
000607C0
000607E0
000C07E0
001807E0
001FFFE0
003FFFE0
00301FE0
006003E0
00E003F0
00C003F0
01C003F0
018003F0
038003F0
030003F0
0F8003F8
3FE01FFE
FFF03FFF
ENDCHAR
STARTCHAR 00C6
ENCODING 198
SWIDTH 975 0
DWIDTH 39 0
BBX 44 29 -4 0
BITMAP
000001FFFFF0
000001FFFFF0
0000007F07F0
000000FF0070
000001FF0060
000001BF0060
0000037E0060
0000067E0020
00000E7E0400
00001C7E0400
0000187E0C00
000030FC0C00
000060FC1C00
0000FFFFF800
0001FFFFF800
000300FC3800
000301F81800
000601F81800
000C01F81000
001801F81000
003801F000C0
007003F00180
00E003F00180
01C003F00300
01C003F00700
038007E00700
0F8007E03E00
3FE03FFFFE00
FFF07FFFFE00
ENDCHAR
STARTCHAR 00C7
ENCODING 199
SWIDTH 700 0
DWIDTH 28 0
BBX 27 37 2 -8
BITMAP
0003FF80
001FFFE0
007E07C0
00F801C0
01F001C0
03E001C0
07E000C0
0FC00080
1F800080
1F800000
3F000000
3F000000
7F000000
7E000000
7E000000
FE000000
FE000000
FE000000
FE000000
FE000000
FE000300
FE000200
7F000600
7F000E00
7F801C00
3FC03C00
1FE03C00
0FFFF800
03FFC000
00380000
00300000
00780000
003C0000
003C0000
00380000
01F00000
00C00000
ENDCHAR
STARTCHAR 00C8
ENCODING 200
SWIDTH 650 0
DWIDTH 26 0
BBX 28 37 -1 0
BITMAP
0000E000
0001F800
0001FC00
0000FE00
00001F80
00000000
00000000
00000000
03FFFFF0
01FFFFF0
007F07E0
003F00E0
003F0060
007E0060
007E0060
007E0060
007E0400
00FC0400
00FC0C00
00FC1800
00FC1800
00FFF800
01FFF800
01F83800
01F83000
01F83000
01F81000
03F01000
03F00080
03F00180
03F00300
03E00300
07E00700
07E00E00
0FE07E00
3FFFFE00
FFFFFC00
ENDCHAR
STARTCHAR 00C9
ENCODING 201
SWIDTH 650 0
DWIDTH 26 0
BBX 28 37 -1 0
BITMAP
00000380
00000F80
00003F80
00007F00
0001F800
00000000
00000000
00000000
03FFFFF0
01FFFFF0
007F07E0
003F00E0
003F0060
007E0060
007E0060
007E0060
007E0400
00FC0400
00FC0C00
00FC1800
00FC1800
00FFF800
01FFF800
01F83800
01F83000
01F83000
01F81000
03F01000
03F00080
03F00180
03F00300
03E00300
07E00700
07E00E00
0FE07E00
3FFFFE00
FFFFFC00
ENDCHAR
STARTCHAR 00CA
ENCODING 202
SWIDTH 650 0
DWIDTH 26 0
BBX 28 37 -1 0
BITMAP
00001C00
00003E00
0000FF00
0001EF00
00030180
00000000
00000000
00000000
03FFFFF0
01FFFFF0
007F07E0
003F00E0
003F0060
007E0060
007E0060
007E0060
007E0400
00FC0400
00FC0C00
00FC1800
00FC1800
00FFF800
01FFF800
01F83800
01F83000
01F83000
01F81000
03F01000
03F00080
03F00180
03F00300
03E00300
07E00700
07E00E00
0FE07E00
3FFFFE00
FFFFFC00
ENDCHAR
STARTCHAR 00CB
ENCODING 203
SWIDTH 650 0
DWIDTH 26 0
BBX 28 37 -1 0
BITMAP
00018080
0003C3C0
0007C3C0
0007C7C0
00038380
00000000
00000000
00000000
03FFFFF0
01FFFFF0
007F07E0
003F00E0
003F0060
007E0060
007E0060
007E0060
007E0400
00FC0400
00FC0C00
00FC1800
00FC1800
00FFF800
01FFF800
01F83800
01F83000
01F83000
01F81000
03F01000
03F00080
03F00180
03F00300
03E00300
07E00700
07E00E00
0FE07E00
3FFFFE00
FFFFFC00
ENDCHAR
STARTCHAR 00CC
ENCODING 204
SWIDTH 450 0
DWIDTH 18 0
BBX 20 37 -1 0
BITMAP
001C00
003F00
003F80
003FC0
0007E0
000010
000000
000000
03FFF0
01FFF0
007F80
003F00
003E00
007E00
007E00
007E00
007E00
00FC00
00FC00
00FC00
00FC00
00FC00
01F800
01F800
01F800
01F800
01F800
03F000
03F000
03F000
03F000
03E000
07E000
07E000
0FE000
3FFC00
FFFE00
ENDCHAR
STARTCHAR 00CD
ENCODING 205
SWIDTH 450 0
DWIDTH 18 0
BBX 21 37 -1 0
BITMAP
000070
0001F8
0003F0
000FF0
003F00
000000
000000
000000
03FFF0
01FFF0
007F80
003F00
003E00
007E00
007E00
007E00
007E00
00FC00
00FC00
00FC00
00FC00
00FC00
01F800
01F800
01F800
01F800
01F800
03F000
03F000
03F000
03F000
03E000
07E000
07E000
0FE000
3FFC00
FFFE00
ENDCHAR
STARTCHAR 00CE
ENCODING 206
SWIDTH 450 0
DWIDTH 18 0
BBX 20 37 -1 0
BITMAP
000300
000F80
001FC0
003DE0
00E030
000000
000000
000000
03FFF0
01FFF0
007F80
003F00
003E00
007E00
007E00
007E00
007E00
00FC00
00FC00
00FC00
00FC00
00FC00
01F800
01F800
01F800
01F800
01F800
03F000
03F000
03F000
03F000
03E000
07E000
07E000
0FE000
3FFC00
FFFE00
ENDCHAR
STARTCHAR 00CF
ENCODING 207
SWIDTH 450 0
DWIDTH 18 0
BBX 21 37 -1 0
BITMAP
002020
007878
00F8F8
00F0F8
00E070
000000
000000
000000
03FFF0
01FFF0
007F80
003F00
003E00
007E00
007E00
007E00
007E00
00FC00
00FC00
00FC00
00FC00
00FC00
01F800
01F800
01F800
01F800
01F800
03F000
03F000
03F000
03F000
03E000
07E000
07E000
0FE000
3FFC00
FFFE00
ENDCHAR
STARTCHAR 00D1
ENCODING 209
SWIDTH 825 0
DWIDTH 33 0
BBX 36 36 -1 0
BITMAP
00003E0000
00007FF000
0000FFE000
000007C000
0000000000
0000000000
0000000000
03FC007FF0
01FC003FE0
007E000F80
003F000E00
003F000E00
007F800E00
007F800C00
007FC00C00
007FC00C00
00EFE00C00
00CFE01800
00C7F01800
00C3F01800
00C3F81800
0181F81800
0181FC3000
0180FC3000
0180FE3000
01807F3000
03007F7000
03003FE000
03003FE000
03001FE000
07000FE000
07000FC000
070007C000
0F0007C000
3FC003C000
FFE003C000
ENDCHAR
STARTCHAR 00D2
ENCODING 210
SWIDTH 775 0
DWIDTH 31 0
BBX 29 37 2 0
BITMAP
00038000
0007C000
0007E000
0007F800
0000FC00
00000000
00000000
00000000
0007FE00
001FFF80
00781FC0
00F00FE0
03E007F0
07C003F0
07C003F8
0F8003F8
1F8003F8
1F0001F8
3F0001F8
3F0001F8
7E0001F8
7E0001F8
7E0003F8
FE0003F8
FE0003F0
FE0003F0
FE0003F0
FE0007E0
FE0007C0
FE000FC0
7E000F80
7F001F00
7F001E00
3F803C00
1FC0F800
0FFFE000
03FF8000
ENDCHAR
STARTCHAR 00D3
ENCODING 211
SWIDTH 775 0
DWIDTH 31 0
BBX 29 37 2 0
BITMAP
00001E00
00003E00
0000FE00
0003FC00
000FC000
00000000
00000000
00000000
0007FE00
001FFF80
00781FC0
00F00FE0
03E007F0
07C003F0
07C003F8
0F8003F8
1F8003F8
1F0001F8
3F0001F8
3F0001F8
7E0001F8
7E0001F8
7E0003F8
FE0003F8
FE0003F0
FE0003F0
FE0003F0
FE0007E0
FE0007C0
FE000FC0
7E000F80
7F001F00
7F001E00
3F803C00
1FC0F800
0FFFE000
03FF8000
ENDCHAR
STARTCHAR 00D4
ENCODING 212
SWIDTH 775 0
DWIDTH 31 0
BBX 29 37 2 0
BITMAP
00006000
0001F000
0003F800
0007BC00
001C0600
00000000
00000000
00000000
0007FE00
001FFF80
00781FC0
00F00FE0
03E007F0
07C003F0
07C003F8
0F8003F8
1F8003F8
1F0001F8
3F0001F8
3F0001F8
7E0001F8
7E0001F8
7E0003F8
FE0003F8
FE0003F0
FE0003F0
FE0003F0
FE0007E0
FE0007C0
FE000FC0
7E000F80
7F001F00
7F001E00
3F803C00
1FC0F800
0FFFE000
03FF8000
ENDCHAR
STARTCHAR 00D5
ENCODING 213
SWIDTH 775 0
DWIDTH 31 0
BBX 29 36 2 0
BITMAP
0003E000
0007FF80
000FFF00
00003E00
00000000
00000000
00000000
0007FE00
001FFF80
00781FC0
00F00FE0
03E007F0
07C003F0
07C003F8
0F8003F8
1F8003F8
1F0001F8
3F0001F8
3F0001F8
7E0001F8
7E0001F8
7E0003F8
FE0003F8
FE0003F0
FE0003F0
FE0003F0
FE0007E0
FE0007C0
FE000FC0
7E000F80
7F001F00
7F001E00
3F803C00
1FC0F800
0FFFE000
03FF8000
ENDCHAR
STARTCHAR 00D6
ENCODING 214
SWIDTH 775 0
DWIDTH 31 0
BBX 29 37 2 0
BITMAP
00040400
000F0F00
001F1F00
001E1F00
001C0E00
00000000
00000000
00000000
0007FE00
001FFF80
00781FC0
00F00FE0
03E007F0
07C003F0
07C003F8
0F8003F8
1F8003F8
1F0001F8
3F0001F8
3F0001F8
7E0001F8
7E0001F8
7E0003F8
FE0003F8
FE0003F0
FE0003F0
FE0003F0
FE0007E0
FE0007C0
FE000FC0
7E000F80
7F001F00
7F001E00
3F803C00
1FC0F800
0FFFE000
03FF8000
ENDCHAR
STARTCHAR 00D7
ENCODING 215
SWIDTH 550 0
DWIDTH 22 0
BBX 20 21 1 -1
BITMAP
400020
E00070
7000E0
3801C0
1C0380
0E0700
070E00
039C00
01F800
00F000
00F000
01F800
039C00
070E00
0E0700
1C0380
3801C0
7000E0
E00070
C00030
800020
ENDCHAR
STARTCHAR 00D8
ENCODING 216
SWIDTH 775 0
DWIDTH 31 0
BBX 30 34 2 -3
BITMAP
0000000C
00000010
0007FE30
001FFFE0
00781FC0
00F00FE0
03E007F0
07C003F0
07C007F8
0F800FF8
1F801BF8
1F0031F8
3F0061F8
3F0041F8
7E0081F8
7E0181F8
7E0303F8
FE0603F8
FE0C03F0
FE1803F0
FE1003F0
FE2007E0
FE6007C0
FEC00FC0
7F800F80
7F001F00
7F001E00
3F803C00
1FC0F800
1FFFE000
33FF8000
60000000
C0000000
80000000
ENDCHAR
STARTCHAR 00D9
ENCODING 217
SWIDTH 800 0
DWIDTH 32 0
BBX 30 38 4 -1
BITMAP
00070000
000F8000
000FE000
000FF000
0001F800
00000000
00000000
00000000
7FFE0FFC
7FFC0FF8
1FF003E0
0FC001C0
0FC00180
0FC00380
0FC00380
1F800300
1F800300
1F800300
1F800300
1F800600
3F000600
3F000600
3F000600
3F000600
3F000C00
7E000C00
7E000C00
7E000C00
7E000C00
7C001800
FC001800
FC001800
FE003000
7E007000
7F81C000
3FFF8000
1FFE0000
01E00000
ENDCHAR
STARTCHAR 00DA
ENCODING 218
SWIDTH 800 0
DWIDTH 32 0
BBX 30 38 4 -1
BITMAP
00003C00
00007C00
0001FC00
0007F800
000F8000
00100000
00000000
00000000
7FFE0FFC
7FFC0FF8
1FF003E0
0FC001C0
0FC00180
0FC00380
0FC00380
1F800300
1F800300
1F800300
1F800300
1F800600
3F000600
3F000600
3F000600
3F000600
3F000C00
7E000C00
7E000C00
7E000C00
7E000C00
7C001800
FC001800
FC001800
FE003000
7E007000
7F81C000
3FFF8000
1FFE0000
01E00000
ENDCHAR
STARTCHAR 00DB
ENCODING 219
SWIDTH 800 0
DWIDTH 32 0
BBX 30 38 4 -1
BITMAP
00006000
0001F000
0003F800
0007BC00
001C0600
00000000
00000000
00000000
7FFE0FFC
7FFC0FF8
1FF003E0
0FC001C0
0FC00180
0FC00380
0FC00380
1F800300
1F800300
1F800300
1F800300
1F800600
3F000600
3F000600
3F000600
3F000600
3F000C00
7E000C00
7E000C00
7E000C00
7E000C00
7C001800
FC001800
FC001800
FE003000
7E007000
7F81C000
3FFF8000
1FFE0000
01E00000
ENDCHAR
STARTCHAR 00DC
ENCODING 220
SWIDTH 800 0
DWIDTH 32 0
BBX 30 38 4 -1
BITMAP
00040400
001E0E00
001E1F00
001E1E00
001C1C00
00000000
00000000
00000000
7FFE0FFC
7FFC0FF8
1FF003E0
0FC001C0
0FC00180
0FC00380
0FC00380
1F800300
1F800300
1F800300
1F800300
1F800600
3F000600
3F000600
3F000600
3F000600
3F000C00
7E000C00
7E000C00
7E000C00
7E000C00
7C001800
FC001800
FC001800
FE003000
7E007000
7F81C000
3FFF8000
1FFE0000
01E00000
ENDCHAR
STARTCHAR 00DD
ENCODING 221
SWIDTH 675 0
DWIDTH 27 0
BBX 28 37 3 0
BITMAP
00003C00
00007C00
0001FC00
0007F800
001F8000
00000000
00000000
00000000
FFFC7FF0
FFF83FE0
3FE01F80
1FC00E00
0FC01C00
0FC01800
07E03000
07E03000
07E06000
03E0C000
03F18000
03F18000
01F30000
01FE0000
00FE0000
00FC0000
00FC0000
01F80000
01F80000
01F80000
01F80000
01F80000
03F00000
03F00000
03F00000
03F00000
07F00000
3FFC0000
7FFE0000
ENDCHAR
STARTCHAR 00DE
ENCODING 222
SWIDTH 625 0
DWIDTH 25 0
BBX 26 29 -1 0
BITMAP
03FFF000
01FFF000
007F8000
003F0000
003E0000
007E0000
007E0000
007E0000
007FFE00
00FDFF00
00FC7F80
00FC3FC0
00FC1FC0
00FC0FC0
01F80FC0
01F80FC0
01F80F80
01F81F00
01F81F00
03F07C00
03F3F800
03F3C000
03F00000
03E00000
07E00000
07E00000
0FE00000
3FFC0000
FFFE0000
ENDCHAR
STARTCHAR 00DF
ENCODING 223
SWIDTH 725 0
DWIDTH 29 0
BBX 32 42 -5 -11
BITMAP
00003FE0
00007FF0
0000FEF8
0001F81C
0003F01C
0003E00C
0003E00C
0007E00C
0007C00C
0007C01C
0007C038
000FC0F0
007FC1C0
00FF8380
000F8780
000F8780
001F8780
001F87C0
001F07E0
001F07F0
001F03F8
003F03FC
003E01FE
003E007F
003E003F
007E001F
007E301F
007C781E
007C7C1E
007C7F3C
00FC3FF0
00FC0300
00F80000
00F80000
00F80000
01F00000
01F00000
41E00000
F3C00000
FF800000
FE000000
78000000
ENDCHAR
STARTCHAR 00E0
ENCODING 224
SWIDTH 550 0
DWIDTH 22 0
BBX 20 30 1 -1
BITMAP
003800
007C00
007E00
003F00
000F80
000380
0000C0
000000
000000
00F060
03FCC0
07FFC0
0C3FC0
0C1FC0
180FC0
380780
380780
380F80
780F80
781F80
781F00
783F00
F83F00
FC5F00
FCDF10
7FBF30
7F3F60
7F3FC0
3E1F00
100C00
ENDCHAR
STARTCHAR 00E1
ENCODING 225
SWIDTH 550 0
DWIDTH 22 0
BBX 20 30 1 -1
BITMAP
0001E0
0003E0
000FC0
001FC0
003E00
007000
008000
000000
000000
00F060
03FCC0
07FFC0
0C3FC0
0C1FC0
180FC0
380780
380780
380F80
780F80
781F80
781F00
783F00
F83F00
FC5F00
FCDF10
7FBF30
7F3F60
7F3FC0
3E1F00
100C00
ENDCHAR
STARTCHAR 00E2
ENCODING 226
SWIDTH 550 0
DWIDTH 22 0
BBX 20 30 1 -1
BITMAP
000400
000E00
003F00
007F80
00E380
0180C0
000000
000000
000000
00F060
03FCC0
07FFC0
0C3FC0
0C1FC0
180FC0
380780
380780
380F80
780F80
781F80
781F00
783F00
F83F00
FC5F00
FCDF10
7FBF30
7F3F60
7F3FC0
3E1F00
100C00
ENDCHAR
STARTCHAR 00E3
ENCODING 227
SWIDTH 550 0
DWIDTH 22 0
BBX 20 30 1 -1
BITMAP
007C00
00FFE0
01FFC0
000F80
000000
000000
000000
000000
000000
00F060
03FCC0
07FFC0
0C3FC0
0C1FC0
180FC0
380780
380780
380F80
780F80
781F80
781F00
783F00
F83F00
FC5F00
FCDF10
7FBF30
7F3F60
7F3FC0
3E1F00
100C00
ENDCHAR
STARTCHAR 00E4
ENCODING 228
SWIDTH 550 0
DWIDTH 22 0
BBX 20 31 1 -1
BITMAP
004040
01E0F0
01E1F0
01E1E0
01C1E0
000000
000000
000000
000000
000000
00F060
03FCC0
07FFC0
0C3FC0
0C1FC0
180FC0
380780
380780
380F80
780F80
781F80
781F00
783F00
F83F00
FC5F00
FCDF10
7FBF30
7F3F60
7F3FC0
3E1F00
100C00
ENDCHAR
STARTCHAR 00E5
ENCODING 229
SWIDTH 550 0
DWIDTH 22 0
BBX 20 31 1 -1
BITMAP
000600
001B00
003180
002180
002180
002300
003600
001800
000000
000000
00F060
03FCC0
07FFC0
0C3FC0
0C1FC0
180FC0
380780
380780
380F80
780F80
781F80
781F00
783F00
F83F00
FC5F00
FCDF10
7FBF30
7F3F60
7F3FC0
3E1F00
100C00
ENDCHAR
STARTCHAR 00E6
ENCODING 230
SWIDTH 750 0
DWIDTH 30 0
BBX 28 21 1 -1
BITMAP
00F06780
03FCDFE0
07FFFFE0
0C3FE3F0
0C1FC1F0
180FC1F0
380781E0
380783E0
380F87C0
780F8F00
781FFC00
781F8000
782F8000
F82F8000
FC4FC000
FCCFC080
7F8FC0C0
7F07E380
7F07FE00
3E03FC00
0800C000
ENDCHAR
STARTCHAR 00E7
ENCODING 231
SWIDTH 425 0
DWIDTH 17 0
BBX 16 28 1 -8
BITMAP
003C
01FF
03FF
061F
0E06
1C00
1C00
3C00
3C00
7C00
7C00
7C00
7C00
FC00
FC00
7C00
7E0C
7F18
3FF0
3FE0
0700
0600
0780
0F80
0380
0380
1F00
2800
ENDCHAR
STARTCHAR 00E8
ENCODING 232
SWIDTH 450 0
DWIDTH 18 0
BBX 17 30 1 -1
BITMAP
007000
00F800
00FC00
00FE00
001E00
000700
000180
000000
000000
003C00
01FE00
03FF00
061F00
0E1F00
1C0F00
3C1F00
3C1E00
3C3C00
7CF800
7FC000
7C0000
FC0000
FC0000
FC0000
7E0800
7E0C00
7F1800
3FF000
1FC000
020000
ENDCHAR
STARTCHAR 00E9
ENCODING 233
SWIDTH 450 0
DWIDTH 18 0
BBX 17 30 1 -1
BITMAP
000380
000780
001F80
003F00
007C00
01E000
010000
000000
000000
003C00
01FE00
03FF00
061F00
0E1F00
1C0F00
3C1F00
3C1E00
3C3C00
7CF800
7FC000
7C0000
FC0000
FC0000
FC0000
7E0800
7E0C00
7F1800
3FF000
1FC000
020000
ENDCHAR
STARTCHAR 00EA
ENCODING 234
SWIDTH 450 0
DWIDTH 18 0
BBX 17 30 1 -1
BITMAP
000800
003C00
007E00
00FE00
01C700
070180
000000
000000
000000
003C00
01FE00
03FF00
061F00
0E1F00
1C0F00
3C1F00
3C1E00
3C3C00
7CF800
7FC000
7C0000
FC0000
FC0000
FC0000
7E0800
7E0C00
7F1800
3FF000
1FC000
020000
ENDCHAR
STARTCHAR 00EB
ENCODING 235
SWIDTH 450 0
DWIDTH 18 0
BBX 18 31 1 -1
BITMAP
010100
0783C0
0787C0
078780
070780
000000
000000
000000
000000
000000
003C00
01FE00
03FF00
061F00
0E1F00
1C0F00
3C1F00
3C1E00
3C3C00
7CF800
7FC000
7C0000
FC0000
FC0000
FC0000
7E0800
7E0C00
7F1800
3FF000
1FC000
020000
ENDCHAR
STARTCHAR 00EC
ENCODING 236
SWIDTH 350 0
DWIDTH 14 0
BBX 13 30 1 -1
BITMAP
0780
0F80
0FC0
07E0
01F0
0038
0010
0000
0000
0380
0FC0
3FC0
67C0
C7C0
87C0
0FC0
0FC0
0F80
0F80
0F80
1F80
1F80
1F00
1F00
1F10
3F38
3F60
3FC0
1F80
0C00
ENDCHAR
STARTCHAR 00ED
ENCODING 237
SWIDTH 350 0
DWIDTH 14 0
BBX 14 30 1 -1
BITMAP
001C
007C
00FC
01F8
03C0
0E00
1000
0000
0000
0380
0FC0
3FC0
67C0
C7C0
87C0
0FC0
0FC0
0F80
0F80
0F80
1F80
1F80
1F00
1F00
1F10
3F38
3F60
3FC0
1F80
0C00
ENDCHAR
STARTCHAR 00EE
ENCODING 238
SWIDTH 350 0
DWIDTH 14 0
BBX 14 30 1 -1
BITMAP
00C0
01E0
03F0
07F0
1E38
300C
0000
0000
0000
0380
0FC0
3FC0
67C0
C7C0
87C0
0FC0
0FC0
0F80
0F80
0F80
1F80
1F80
1F00
1F00
1F10
3F38
3F60
3FC0
1F80
0C00
ENDCHAR
STARTCHAR 00EF
ENCODING 239
SWIDTH 350 0
DWIDTH 14 0
BBX 15 31 1 -1
BITMAP
0808
1E1E
3E3E
3C3E
381C
0000
0000
0000
0000
0000
0380
0FC0
3FC0
67C0
C7C0
87C0
0FC0
0FC0
0F80
0F80
0F80
1F80
1F80
1F00
1F00
1F10
3F38
3F60
3FC0
1F80
0C00
ENDCHAR
STARTCHAR 00F1
ENCODING 241
SWIDTH 625 0
DWIDTH 25 0
BBX 23 30 1 -1
BITMAP
007C00
00FFF0
01FFE0
0007C0
000000
000000
000000
000000
000000
0380E0
0FC3F0
3FC7F8
67CFF8
C7D9F8
87D1F8
0FE1F0
0FE1F0
0FC1F0
0FC3F0
0F83F0
1F83E0
1F03E0
1F07E0
1F07E0
1E07C2
3E07C6
3E07CC
3C07F8
3C07E0
000380
ENDCHAR
STARTCHAR 00F2
ENCODING 242
SWIDTH 525 0
DWIDTH 21 0
BBX 17 30 2 -1
BITMAP
00E000
01F000
01F800
01FC00
003C00
000E00
000300
000000
000000
00F800
03FE00
071F00
0F1F80
1E0F80
3E0F80
3C0F80
7C0F80
7C0F80
FC0F80
FC0F80
F81F80
F81F80
F81F00
F81F00
F83E00
FC3C00
7C7800
7CF000
3FE000
070000
ENDCHAR
STARTCHAR 00F3
ENCODING 243
SWIDTH 525 0
DWIDTH 21 0
BBX 17 30 2 -1
BITMAP
000780
000F80
001F80
007F00
00F800
01C000
020000
000000
000000
00F800
03FE00
071F00
0F1F80
1E0F80
3E0F80
3C0F80
7C0F80
7C0F80
FC0F80
FC0F80
F81F80
F81F80
F81F00
F81F00
F83E00
FC3C00
7C7800
7CF000
3FE000
070000
ENDCHAR
STARTCHAR 00F4
ENCODING 244
SWIDTH 525 0
DWIDTH 21 0
BBX 17 30 2 -1
BITMAP
001800
003800
00FC00
01FE00
038700
060300
000080
000000
000000
00F800
03FE00
071F00
0F1F80
1E0F80
3E0F80
3C0F80
7C0F80
7C0F80
FC0F80
FC0F80
F81F80
F81F80
F81F00
F81F00
F83E00
FC3C00
7C7800
7CF000
3FE000
070000
ENDCHAR
STARTCHAR 00F5
ENCODING 245
SWIDTH 525 0
DWIDTH 21 0
BBX 18 30 2 -1
BITMAP
01F000
03FFC0
07FF80
003E00
000000
000000
000000
000000
000000
00F800
03FE00
071F00
0F1F80
1E0F80
3E0F80
3C0F80
7C0F80
7C0F80
FC0F80
FC0F80
F81F80
F81F80
F81F00
F81F00
F83E00
FC3C00
7C7800
7CF000
3FE000
070000
ENDCHAR
STARTCHAR 00F6
ENCODING 246
SWIDTH 525 0
DWIDTH 21 0
BBX 18 31 2 -1
BITMAP
010100
078380
0787C0
078780
070700
000000
000000
000000
000000
000000
00F800
03FE00
071F00
0F1F80
1E0F80
3E0F80
3C0F80
7C0F80
7C0F80
FC0F80
FC0F80
F81F80
F81F80
F81F00
F81F00
F83E00
FC3C00
7C7800
7CF000
3FE000
070000
ENDCHAR
STARTCHAR 00F7
ENCODING 247
SWIDTH 525 0
DWIDTH 21 0
BBX 19 21 1 -1
BITMAP
00E000
01F000
01F000
01E000
00C000
000000
000000
000000
000000
FFFFE0
FFFFE0
000000
000000
000000
000000
000000
00E000
01F000
01F000
01E000
004000
ENDCHAR
STARTCHAR 00F8
ENCODING 248
SWIDTH 525 0
DWIDTH 21 0
BBX 21 25 0 -3
BITMAP
000018
000030
003E20
00FFC0
01E7C0
03C7E0
0783E0
0F83E0
0F07E0
1F0FE0
1F1BE0
3F33E0
3F23E0
3E47E0
3EC7E0
3F87C0
3F07C0
3E0F80
3F0F00
1F1E00
1F3C00
3FF800
21C000
400000
C00000
ENDCHAR
STARTCHAR 00F9
ENCODING 249
SWIDTH 625 0
DWIDTH 25 0
BBX 23 30 1 -1
BITMAP
003C00
003E00
007E00
003F00
000F80
0001C0
000040
000000
000000
038000
0FC078
3FC078
67C0F8
C7C0F8
87C0F8
0FC1F0
0FC1F0
0F81F0
0F83F0
0F83F0
1F87E0
1F87E0
1F0FE0
1F0FE0
1F17C2
3F37C6
3FE7CC
3FC7F8
1F87E0
0E0380
ENDCHAR
STARTCHAR 00FA
ENCODING 250
SWIDTH 625 0
DWIDTH 25 0
BBX 23 30 1 -1
BITMAP
0001E0
0003E0
0007E0
000FC0
003E00
007000
008000
000000
000000
038000
0FC078
3FC078
67C0F8
C7C0F8
87C0F8
0FC1F0
0FC1F0
0F81F0
0F83F0
0F83F0
1F87E0
1F87E0
1F0FE0
1F0FE0
1F17C2
3F37C6
3FE7CC
3FC7F8
1F87E0
0E0380
ENDCHAR
STARTCHAR 00FB
ENCODING 251
SWIDTH 625 0
DWIDTH 25 0
BBX 23 30 1 -1
BITMAP
000600
000F00
001F00
007F80
00E1C0
018060
000000
000000
000000
038000
0FC078
3FC078
67C0F8
C7C0F8
87C0F8
0FC1F0
0FC1F0
0F81F0
0F83F0
0F83F0
1F87E0
1F87E0
1F0FE0
1F0FE0
1F17C2
3F37C6
3FE7CC
3FC7F8
1F87E0
0E0380
ENDCHAR
STARTCHAR 00FC
ENCODING 252
SWIDTH 625 0
DWIDTH 25 0
BBX 23 31 1 -1
BITMAP
006020
00F0F0
01F0F0
01F1F0
00E0E0
000000
000000
000000
000000
000000
038000
0FC078
3FC078
67C0F8
C7C0F8
87C0F8
0FC1F0
0FC1F0
0F81F0
0F83F0
0F83F0
1F87E0
1F87E0
1F0FE0
1F0FE0
1F17C2
3F37C6
3FE7CC
3FC7F8
1F87E0
0E0380
ENDCHAR
STARTCHAR 00FD
ENCODING 253
SWIDTH 525 0
DWIDTH 21 0
BBX 21 40 -2 -11
BITMAP
000038
0000F8
0001F8
0003F0
000780
001C00
002000
000000
000000
007070
01F878
07F8F8
0CF878
18F838
10F818
00F818
01F818
01F818
01F818
01F010
01F030
01F020
01F060
03F040
03F0C0
03F180
03F780
03FF00
01FB00
00E600
000400
000C00
001800
003800
00F000
7FE000
FFC000
FF8000
FE0000
700000
ENDCHAR
STARTCHAR 00FE
ENCODING 254
SWIDTH 550 0
DWIDTH 22 0
BBX 25 42 -4 -10
BITMAP
00006000
0003C000
003FC000
007FC000
000FC000
000FC000
000F8000
000F8000
000F8000
001F8000
001F8000
001F0000
001F0C00
001F1F00
003F3F00
003E7F80
003EFF80
003F9F80
003F0F80
007F0F80
007E0F80
007E0F80
007C0F00
00FC0F00
00F80F00
00F80E00
00F80E00
00F80C00
01FC0C00
01FE1800
01FFF000
01FFE000
01F30000
03F00000
03E00000
03E00000
03E00000
07E00000
07E00000
07E00000
3FFC0000
FFFF0000
ENDCHAR
STARTCHAR 00FF
ENCODING 255
SWIDTH 525 0
DWIDTH 21 0
BBX 22 41 -2 -11
BITMAP
001010
003C3C
007C7C
00787C
007038
000000
000000
000000
000000
000000
007070
01F878
07F8F8
0CF878
18F838
10F818
00F818
01F818
01F818
01F818
01F010
01F030
01F020
01F060
03F040
03F0C0
03F180
03F780
03FF00
01FB00
00E600
000400
000C00
001800
003800
00F000
7FE000
FFC000
FF8000
FE0000
700000
ENDCHAR
STARTCHAR 0131
ENCODING 305
SWIDTH 350 0
DWIDTH 14 0
BBX 13 21 1 -1
BITMAP
0380
0FC0
3FC0
67C0
C7C0
87C0
0FC0
0FC0
0F80
0F80
0F80
1F80
1F80
1F00
1F00
1F10
3F38
3F60
3FC0
1F80
0C00
ENDCHAR
STARTCHAR 0141
ENCODING 321
SWIDTH 650 0
DWIDTH 26 0
BBX 25 29 -1 0
BITMAP
03FFF000
01FFF000
007F8000
003F0000
003E0000
007E0000
007E0000
007E0000
007E2000
00FCE000
00FDC000
00FF8000
00FE0000
00FC0000
01F80000
01F80000
07F80000
1FF80000
39F80000
33F00000
03F00080
03F00180
03F00180
03E00300
07E00700
07E00F00
0FE03E00
3FFFFE00
FFFFFC00
ENDCHAR
STARTCHAR 0142
ENCODING 322
SWIDTH 325 0
DWIDTH 13 0
BBX 17 33 -2 -1
BITMAP
000600
003E00
03FC00
07FC00
00FC00
00FC00
00FC00
00F800
00F800
00F800
01F800
01F000
01F180
01F780
03FE00
03F800
03F000
03E000
07E000
1FE000
3FE000
F7C000
47C000
07C000
0FC000
0FC000
0F8000
0F8800
1F8C00
1FB000
1FE000
0FC000
060000
ENDCHAR
STARTCHAR 0152
ENCODING 338
SWIDTH 1000 0
DWIDTH 40 0
BBX 39 30 2 -1
BITMAP
0007FFFFFE
001FFFFFFE
007C07E0FE
00F007E00E
03E007E00C
07C007E00C
07C007C00C
0F800FC004
1F800FC0C0
1F000FC080
3F000FC180
3F001F8180
7E001F8380
7E001FFF00
7E001FFF00
FE001F8700
FE003F0300
FE003F0300
FE003F0200
FE003F0200
FE003F0018
FE007E0030
7E007E0030
7F007E0060
7F007E00E0
3F80FC00E0
1FC0FC07C0
0FF9FFFFC0
03FFFFFFC0
0020000000
ENDCHAR
STARTCHAR 0153
ENCODING 339
SWIDTH 775 0
DWIDTH 31 0
BBX 28 21 2 -1
BITMAP
00F80380
03FE1FE0
071F3FF0
0F1FE1F0
1E0FC1F0
3E0FC1F0
3C0FC1F0
7C0FC1E0
7C0F83C0
FC0F8F00
FC0FFC00
F81F8000
F81F8000
F81FC000
F81FC000
F83FC080
FC3FE0C0
7C7FF180
7CF7FF00
3FE3FC00
06004000
ENDCHAR
STARTCHAR 0160
ENCODING 352
SWIDTH 600 0
DWIDTH 24 0
BBX 24 39 0 -1
BITMAP
001806
000E1C
000778
0007E0
0003C0
000180
000000
000000
000000
001FFC
007E7F
00F01E
01E00E
03E00E
07E006
07E006
07E006
07E004
07F000
07F800
07FE00
03FF80
01FFC0
007FF0
003FF0
000FF8
0007F8
0003F8
0001F8
6001F8
6001F8
6001F8
7001F0
7003F0
F007E0
F80FC0
FE7F00
7FFC00
018000
ENDCHAR
STARTCHAR 0161
ENCODING 353
SWIDTH 450 0
DWIDTH 18 0
BBX 18 30 1 -1
BITMAP
020040
018180
01EF00
00FE00
007C00
003000
000000
000000
000000
01F800
07FE00
0E7E00
1C1F00
1C0E00
1E0000
1F0000
1F8000
1FC000
0FF000
0FF800
03FC00
01FC00
00FC00
007E00
403C00
F03C00
F83800
FC7000
7FE000
060000
ENDCHAR
STARTCHAR 0178
ENCODING 376
SWIDTH 675 0
DWIDTH 27 0
BBX 28 37 3 0
BITMAP
00180800
003C3C00
007C3C00
007C7C00
00383800
00000000
00000000
00000000
FFFC7FF0
FFF83FE0
3FE01F80
1FC00E00
0FC01C00
0FC01800
07E03000
07E03000
07E06000
03E0C000
03F18000
03F18000
01F30000
01FE0000
00FE0000
00FC0000
00FC0000
01F80000
01F80000
01F80000
01F80000
01F80000
03F00000
03F00000
03F00000
03F00000
07F00000
3FFC0000
7FFE0000
ENDCHAR
STARTCHAR 017D
ENCODING 381
SWIDTH 525 0
DWIDTH 21 0
BBX 27 38 -3 0
BITMAP
000300C0
0001C380
0000EF00
0000FC00
00007800
00003000
00000000
00000000
00000000
00FFFFE0
00FFFFC0
01FE1FC0
01C03F80
01C03F00
01807E00
0300FE00
0300FC00
0001F800
0003F000
0003F000
0007E000
000FC000
001F8000
001F8000
003F0000
007E0000
00FE0000
00FC0000
01F80000
03F00200
07F00600
07E00C00
0FC00C00
1FC01C00
1F803800
3F01F800
7FFFF800
FFFFF000
ENDCHAR
STARTCHAR 017E
ENCODING 382
SWIDTH 500 0
DWIDTH 20 0
BBX 20 30 0 -1
BITMAP
008020
00E0F0
007BC0
003F80
001E00
000C00
000000
000000
000000
01F080
07FFC0
0FFF80
0FFF00
0FFE00
1C0C00
180800
101800
003000
006180
00C3C0
0183C0
0303C0
0601C0
0400C0
0C0180
1FFF00
3FFF00
7FFC00
FFF000
800000
ENDCHAR
STARTCHAR 0192
ENCODING 402
SWIDTH 475 0
DWIDTH 19 0
BBX 33 39 -7 -7
BITMAP
0000003C00
000001FF00
0000071F80
00000F0F80
00001E0700
00003E0000
00007C0000
00007C0000
0000FC0000
0000FC0000
0000F80000
0000F80000
0001F80000
001FFF8000
001FFF8000
0003F00000
0003E00000
0003E00000
0007E00000
0007C00000
0007C00000
000FC00000
000F800000
000F800000
001F800000
001F000000
001F000000
003F000000
003E000000
003E000000
007E000000
007C000000
007C000000
00F8000000
00F0000000
70E0000000
FDC0000000
FF80000000
FE00000000
ENDCHAR
STARTCHAR 02C6
ENCODING 710
SWIDTH 550 0
DWIDTH 22 0
BBX 12 6 8 23
BITMAP
0300
0780
0F80
3FC0
70E0
C030
ENDCHAR
STARTCHAR 02C7
ENCODING 711
SWIDTH 550 0
DWIDTH 22 0
BBX 12 6 8 23
BITMAP
8020
E0F0
7BC0
3F80
1E00
0C00
ENDCHAR
STARTCHAR 02C9
ENCODING 713
SWIDTH 525 0
DWIDTH 21 0
BBX 9 2 10 26
BITMAP
FF80
FF80
ENDCHAR
STARTCHAR 02D8
ENCODING 728
SWIDTH 525 0
DWIDTH 21 0
BBX 10 6 11 23
BITMAP
80C0
8080
C180
FF80
FF00
7C00
ENDCHAR
STARTCHAR 02D9
ENCODING 729
SWIDTH 225 0
DWIDTH 9 0
BBX 5 5 6 25
BITMAP
10
78
F8
F8
70
ENDCHAR
STARTCHAR 02DA
ENCODING 730
SWIDTH 550 0
DWIDTH 22 0
BBX 7 8 12 22
BITMAP
10
6C
C6
C6
86
8C
F8
20
ENDCHAR
STARTCHAR 02DB
ENCODING 731
SWIDTH 500 0
DWIDTH 20 0
BBX 7 7 5 -7
BITMAP
06
38
70
E0
E0
FC
F8
ENDCHAR
STARTCHAR 02DC
ENCODING 732
SWIDTH 550 0
DWIDTH 22 0
BBX 13 4 8 25
BITMAP
3E00
7FF8
FFF0
03E0
ENDCHAR
STARTCHAR 02DD
ENCODING 733
SWIDTH 525 0
DWIDTH 21 0
BBX 15 8 8 22
BITMAP
0810
0C18
0F3C
1E3E
3C70
70E0
6180
8100
ENDCHAR
STARTCHAR 2010
ENCODING 8208
SWIDTH 325 0
DWIDTH 13 0
BBX 11 2 1 13
BITMAP
FFE0
FFE0
ENDCHAR
STARTCHAR 2013
ENCODING 8211
SWIDTH 500 0
DWIDTH 20 0
BBX 20 2 0 14
BITMAP
FFFFF0
FFFFF0
ENDCHAR
STARTCHAR 2014
ENCODING 8212
SWIDTH 1000 0
DWIDTH 40 0
BBX 40 2 0 14
BITMAP
FFFFFFFFFF
FFFFFFFFFF
ENDCHAR
STARTCHAR 2018
ENCODING 8216
SWIDTH 300 0
DWIDTH 12 0
BBX 12 12 1 17
BITMAP
0030
00E0
01C0
07C0
0F80
1F00
7F00
FE00
FC00
FC00
7800
3000
ENDCHAR
STARTCHAR 2019
ENCODING 8217
SWIDTH 325 0
DWIDTH 13 0
BBX 12 12 3 17
BITMAP
01E0
03F0
03F0
07F0
0FE0
0FC0
1F00
3E00
3800
7000
C000
8000
ENDCHAR
STARTCHAR 201A
ENCODING 8218
SWIDTH 275 0
DWIDTH 11 0
BBX 11 12 -2 -5
BITMAP
0080
03E0
03E0
07E0
0FE0
0FC0
1F80
1E00
3C00
7800
6000
C000
ENDCHAR
STARTCHAR 201C
ENCODING 8220
SWIDTH 600 0
DWIDTH 24 0
BBX 22 12 3 17
BITMAP
00300C
00E038
01C070
03C0F0
0F83E0
1F87E0
7F1FC0
FE3F80
FE3F80
FC3F00
781E00
200800
ENDCHAR
STARTCHAR 201D
ENCODING 8221
SWIDTH 575 0
DWIDTH 23 0
BBX 22 12 3 17
BITMAP
01E078
03F0FC
03F0FC
07F1FC
0FE3F8
0FC3F0
1F07C0
3E0F80
380E00
701C00
C03000
802000
ENDCHAR
STARTCHAR 201E
ENCODING 8222
SWIDTH 525 0
DWIDTH 21 0
BBX 21 12 -2 -5
BITMAP
008020
03E0F8
03E0F8
07E1F8
0FE3F8
0FC3F0
1F87E0
1E0780
3C0F00
781E00
601800
C03000
ENDCHAR
STARTCHAR 2020
ENCODING 8224
SWIDTH 600 0
DWIDTH 24 0
BBX 20 32 3 -4
BITMAP
001000
003C00
007C00
007C00
007C00
007800
007000
007000
7860E0
FF6FF0
FFFFF0
FF5FF0
F843E0
00C000
00C000
00C000
01C000
01C000
01C000
038000
038000
038000
078000
078000
078000
0F8000
0F8000
0F8000
1F8000
1F0000
1F0000
0E0000
ENDCHAR
STARTCHAR 2021
ENCODING 8225
SWIDTH 600 0
DWIDTH 24 0
BBX 23 32 0 -4
BITMAP
000200
000780
000F80
000F80
000F80
000F00
000E00
000E00
0F0C1C
1FEDFE
1FFFFE
1FEBFE
1F187C
001C00
003C00
007C00
007C00
007C00
007800
383070
7F33F8
FFFFF8
FFBFF0
FC63F0
206040
00E000
00E000
01E000
03F000
03E000
03E000
01C000
ENDCHAR
STARTCHAR 2022
ENCODING 8226
SWIDTH 375 0
DWIDTH 15 0
BBX 12 12 2 8
BITMAP
1F00
3F80
7FC0
FFE0
FFE0
FFF0
FFF0
FFE0
FFE0
7FC0
3FC0
1F00
ENDCHAR
STARTCHAR 2026
ENCODING 8230
SWIDTH 925 0
DWIDTH 37 0
BBX 31 8 3 -1
BITMAP
3C03C03C
7E07E07E
FE0FE0FE
FE0FE0FE
FE0FE0FE
FE0FE0FE
FC0FC0FC
20020020
ENDCHAR
STARTCHAR 2030
ENCODING 8240
SWIDTH 1075 0
DWIDTH 43 0
BBX 38 30 3 -1
BITMAP
03C01C0000
0FF8380000
1E3FF00000
3C37F00000
7830600000
7830C00000
F830C00000
F031800000
F063800000
F063000000
F0C6000000
F186000000
FF0C000000
7E18000000
0018000000
00307C01F0
0031FE07F8
0063C60F18
00C7831E0C
00C7831E0C
018F023C08
018F063C18
031F067C18
061E0E7838
061E0C7830
0C1E187860
1C1F387CE0
181FE07F80
300FC03F00
1000000000
ENDCHAR
STARTCHAR 2039
ENCODING 8249
SWIDTH 325 0
DWIDTH 13 0
BBX 11 16 1 3
BITMAP
0040
0060
00C0
0380
0780
0F00
3F00
7E00
7C00
FE00
3E00
1E00
0E00
0E00
0700
0300
ENDCHAR
STARTCHAR 203A
ENCODING 8250
SWIDTH 325 0
DWIDTH 13 0
BBX 10 16 1 3
BITMAP
1000
1800
1C00
1C00
1E00
0F00
0F80
0FC0
0FC0
0F80
1F00
3E00
3800
7000
E000
8000
ENDCHAR
STARTCHAR 2044
ENCODING 8260
SWIDTH 600 0
DWIDTH 24 0
BBX 24 30 0 -1
BITMAP
000003
000002
000006
00000C
000018
000030
000020
000060
0000C0
000180
000100
000300
000600
000C00
001800
001000
003000
006000
00C000
018000
010000
030000
060000
0C0000
180000
100000
300000
600000
C00000
800000
ENDCHAR
STARTCHAR 2122
ENCODING 8482
SWIDTH 750 0
DWIDTH 30 0
BBX 28 12 2 17
BITMAP
7FEF81F0
CE6F83E0
8E6783C0
8E4785C0
1C058780
1C05CB80
1C05DB80
1C09D380
1C09E380
3808E700
3818C700
FE3CDFC0
ENDCHAR
STARTCHAR 2212
ENCODING 8722
SWIDTH 525 0
DWIDTH 21 0
BBX 19 2 1 9
BITMAP
FFFFE0
FFFFE0
ENDCHAR
STARTCHAR 2219
ENCODING 8729
SWIDTH 350 0
DWIDTH 14 0
BBX 8 8 3 7
BITMAP
1C
3E
7F
FF
FF
FE
FC
78
ENDCHAR
STARTCHAR F001
ENCODING 61441
SWIDTH 750 0
DWIDTH 30 0
BBX 35 43 -5 -11
BITMAP
000003E000
00001FF800
000079FC00
0000F07E00
0001F03C00
0001E00000
0003E00000
0003E00000
0007E00000
0007C00000
0007C00000
0007C00000
000FC00180
007FFFFF80
00FFFFFF80
000F801F80
000F801F00
001F801F00
001F803F00
001F003F00
001F003E00
001F003E00
003F003E00
003E007E00
003E007E00
003E007C00
007E007C00
007E007C40
007C00FCE0
007C00FD80
007C00FF00
00FC007E00
00FC003000
00F8000000
00F8000000
00F8000000
01F0000000
01F0000000
41E0000000
F3C0000000
FF80000000
FE00000000
7800000000
ENDCHAR
STARTCHAR F002
ENCODING 61442
SWIDTH 775 0
DWIDTH 31 0
BBX 36 43 -5 -11
BITMAP
000003C030
00001EF9E0
0000781FE0
0000F00FE0
0001F007E0
0001E007E0
0003E007C0
0003E007C0
0007E007C0
0007C00FC0
0007C00FC0
0007C00F80
000FC00F80
007FFE0F80
00FFFC1F80
000F801F80
000F801F00
001F801F00
001F803F00
001F003F00
001F003E00
001F003E00
003F003E00
003E007E00
003E007E00
003E007C00
007E007C00
007E007C40
007C00FCE0
007C00FD80
007C00FF00
00FC007E00
00FC003000
00F8000000
00F8000000
00F8000000
01F0000000
01F0000000
41E0000000
F3C0000000
FF80000000
FE00000000
7800000000
ENDCHAR
ENDFONT
